<svg enable-background="new 0 0 100 100" version="1.0" viewBox="0 0 100 100" x="0px" xml:space="preserve" xmlns="http://www.w3.org/2000/svg" xmlns:xlink="http://www.w3.org/1999/xlink" y="0px">
<style type="text/css">
	circle, path { fill:#FFFFFF; }
</style>
	<path d="M87.0282745,33.7647934c-1.6340103-1.676178-4.0093384-2.5645332-6.8699951-2.5645332l-3.3058548-0.0022812  l0.6011276-3.2500057c0.587677-3.1946125-1.1397934-6.0885487-2.6892242-7.9541626  c-3.9737778-4.7707186-10.9260635-7.9785538-17.2995605-7.9785538c-0.6432991,0-1.3223877,0.0355616-2.0213089,0.1135235  c-4.1271896,0.4652643-8.9959335,2.5310259-12.0457916,8.9024696l-1.0730019,2.2371864l-2.3352089-0.8347836  c-0.0378418-0.0134506-4.0537872-1.4158516-8.1588688-1.4158516c-6.239912,0-7.5155697,3.0544186-7.8739204,5.7880993  l0.1112442,5.8056526H21.260828c-0.5856266,0-1.1621342,0.062458-1.7297497,0.1670914  c-4.5347824,0.8347855-8.2480021,4.7618294-8.2480021,7.9384346c-0.0020514,2.0969925,0.5587273,5.0935059,3.2502356,7.4731674  c2.7760811,2.4555702,7.3329735,3.8023529,13.1744156,3.8069115h27.1036015h-0.0111694  c5.1600723,0.0043297,14.4965782-0.0022812,19.416378,0h0.018013h0.0020523  c10.1313934,0,15.0555267-4.0293999,15.0623703-12.3663025C89.3010178,37.3533211,88.4951859,35.2718277,87.0282745,33.7647934z"/>
	<path d="M39.5107422,66.1264954c-0.7413216-0.7613831-1.8209343-1.1641922-3.1209793-1.1664658h-1.5004272l0.2714996-1.4760361  c0.26717-1.4536896-0.5163269-2.7669601-1.222084-3.6151962c-1.8054352-2.1683426-4.9642582-3.6243134-7.8604717-3.6243134  c-0.2917881,0-0.6011276,0.015728-0.9173069,0.0512886c-1.8742752,0.2115479-4.0872993,1.1486855-5.4739704,4.044899  l-0.4876041,1.0151024l-1.0597801-0.3784142c-0.0177803-0.0043297-1.8432732-0.6410179-3.7063799-0.6410179  c-2.8362617,0-3.4173288,1.3846207-3.5775833,2.6267662l0.0490103,2.6402168H9.6290083  c-0.2648878,0-0.5274963,0.0266724-0.7857733,0.0756836c-2.0591507,0.3784103-3.7487803,2.1637802-3.7487803,3.606308  c0,0.9528656,0.2559977,2.3130951,1.4780841,3.394989c1.262207,1.1154022,3.3325276,1.7274704,5.9861951,1.7297516h12.315011  h-0.0066109c2.3463783,0.0022736,6.5873222,0,8.8222275,0h0.0088921h0.0022774c4.6015739,0,6.8387604-1.8298264,6.8433228-5.6189575  C40.5438538,67.7559433,40.1786613,66.8099136,39.5107422,66.1264954z"/>
	<path d="M93.9315491,70.0868149c-0.7679977-0.7880478-1.8877258-1.2065811-3.2347336-1.2065811L89.14077,68.8779526  l0.2826614-1.5293732c0.2783432-1.5047531-0.5341034-2.8672638-1.2665329-3.7442207  c-1.8699493-2.2463074-5.1425247-3.7556229-8.1433716-3.7556229c-0.3027267,0-0.6209564,0.0155029-0.9505844,0.0533447  c-1.9433517,0.2181549-4.234108,1.191082-5.6700211,4.1896553l-0.5053787,1.0529404l-1.099678-0.3916321  c-0.0177765-0.0045624-1.9077835-0.6656418-3.8401871-0.6656418c-2.938385,0-3.5395126,1.4356842-3.7086639,2.7225113  l0.0533447,2.7336807h-1.3201065c-0.2781105,0-0.549839,0.0312271-0.8147278,0.0802383  c-2.1348305,0.391861-3.8846436,2.241745-3.8846436,3.7353287c0,0.9884338,0.2648888,2.3976746,1.5316544,3.5174026  c1.3066597,1.1575775,3.4506111,1.7922134,6.2020721,1.7942657h12.7602158h-0.0066071c2.4286652,0,6.8232574-0.0020523,9.140686,0  H87.90979l0,0c4.7684402,0,7.08815-1.8966141,7.0901947-5.8236618  C94.9999847,71.7764511,94.6215744,70.7969055,93.9315491,70.0868149z"/>
	<path d="M54.2213707,84.7906113c-0.4586525-0.4718781-1.1265717-0.7235413-1.9324036-0.7235413h-0.9305267l0.1691437-0.9150314  c0.164814-0.8970184-0.3205109-1.7117386-0.7568207-2.2371826c-1.1174545-1.342453-3.0722008-2.2440262-4.8664627-2.2440262  c-0.1825943,0-0.3717995,0.0088882-0.5698967,0.0312271c-1.1619072,0.1313095-2.5310249,0.7123718-3.3881493,2.5043564  l-0.3027306,0.6300812l-0.6567497-0.2336578c-0.0111694-0.0045624-1.1397934-0.3984756-2.2950859-0.3984756  c-1.7543716,0-2.1150017,0.8591766-2.2150764,1.6271667l0.0312309,1.6340103h-0.7903328  c-0.164814,0-0.3273468,0.0177841-0.4853249,0.04673c-1.2756538,0.235939-2.3219872,1.3401718-2.3219872,2.2328568  c0,0.5899582,0.1582069,1.4336319,0.9150276,2.1038284c0.7814445,0.690033,2.0637093,1.0684433,3.7066078,1.0707245h7.6245346  h-0.0022812c1.451416,0,4.0784111-0.0022812,5.4630318,0h0.0045586h0.0020523c2.8494835,0,4.234333-1.1331787,4.2363815-3.4795609  C54.8601112,85.7990952,54.6330643,85.2134705,54.2213707,84.7906113z"/>
</svg>