<svg enable-background="new 0 0 100 100" version="1.0" viewBox="0 0 100 100" x="0px" xml:space="preserve" xmlns="http://www.w3.org/2000/svg" xmlns:xlink="http://www.w3.org/1999/xlink" y="0px">
<style type="text/css">
	polygon, circle, path { fill:#FFFFFF; }
</style>
	<path d="M49.4085541,44.2836418c-28.8614445-9.8435516-44.0530853,8.6476135-44.0530853,8.6476135  s15.9389858-6.4122124,43.2373505,4.1652107C75.8884888,67.6738892,95.2431641,41.813633,95.2431641,41.813633  S78.2673035,54.1276093,49.4085541,44.2836418z"/>
	<path d="M52.5392761,34.9503403c17.9009171,6.9363518,30.5954056-10.0213737,30.5954056-10.0213737  S72.0012054,33.004364,53.07481,26.5490417c-18.9264946-6.4554272-28.8909779,5.6693268-28.8909779,5.6693268  S34.6382523,28.0142994,52.5392761,34.9503403z"/>
	<path d="M49.7136269,68.2664185c-18.9262886-6.4554253-28.8883877,5.6692276-28.8883877,5.6692276  s10.454216-4.2039719,28.355341,2.7320709C67.081604,83.6039658,79.7734985,66.646347,79.7734985,66.646347  S68.6402283,74.7217407,49.7136269,68.2664185z"/>
</svg>