<svg xmlns="http://www.w3.org/2000/svg" viewBox="0 0 24 24"><path fill="none" d="M0 0h24v24H0z"/><path d="M20.84 6.47a5.31 5.31 0 00-5.09-4.18 5.26 5.26 0 00-4.9 3.55 8.48 8.48 0 011 .15 4.26 4.26 0 013.89-2.7 4.3 4.3 0 014.13 3.41l.17.74h.77A2.33 2.33 0 0123 9.88a2.34 2.34 0 01-2.26 2.41h-.94a4.42 4.42 0 011.29 1A3.35 3.35 0 0024 9.88a3.35 3.35 0 00-3.16-3.41z" fill-rule="evenodd" fill="#fff"/><path d="M10.24 6.29A7 7 0 0117 11.56l.18.74h.76a3.93 3.93 0 01-.13 7.86H3.7A2.7 2.7 0 011 17.49 2.67 2.67 0 012.69 15l.7-.28-.07-.72a6.29 6.29 0 010-.73 7 7 0 017-6.95m0-1a8 8 0 00-8 8 7.56 7.56 0 000 .83 3.69 3.69 0 001.38 7.03h14.11a4.93 4.93 0 00.19-9.86 8 8 0 00-7.73-6z" fill="#fff"/></svg>