<svg id="mostly_clear_day" xmlns="http://www.w3.org/2000/svg" viewBox="0 0 24 24"><defs><style>.cls-1,.cls-2{fill-rule:evenodd}.cls-2{fill:#fff}</style></defs><path class="cls-1" d="M11.32 3.53a.49.49 0 01-.65-.27L9.9 1.41a.51.51 0 01.27-.65.52.52 0 01.66.27l.76 1.85a.49.49 0 01-.27.65zM23.24 6.17a.52.52 0 01-.27.66l-1.85.76a.49.49 0 01-.65-.27.49.49 0 01.27-.65l1.85-.77a.51.51 0 01.65.27zM16.68 3.53a.49.49 0 01-.27-.65L17.17 1a.52.52 0 01.66-.27.51.51 0 01.27.65l-.77 1.85a.49.49 0 01-.65.3zM7.53 7.32a.49.49 0 01-.65.27L5 6.83a.52.52 0 01-.27-.66.51.51 0 01.65-.27l1.85.77a.49.49 0 01.3.65z"/><path class="cls-2" d="M23.24 13.83a.51.51 0 01-.65.27l-1.85-.77a.49.49 0 01-.27-.65.49.49 0 01.65-.27l1.85.76a.52.52 0 01.27.66zM11.32 3.53a.49.49 0 01-.65-.27L9.9 1.41a.51.51 0 01.27-.65.52.52 0 01.66.27l.76 1.85a.49.49 0 01-.27.65zM23.24 6.17a.52.52 0 01-.27.66l-1.85.76a.49.49 0 01-.65-.27.49.49 0 01.27-.65l1.85-.77a.51.51 0 01.65.27zM16.68 3.53a.49.49 0 01-.27-.65L17.17 1a.52.52 0 01.66-.27.51.51 0 01.27.65l-.77 1.85a.49.49 0 01-.65.3zM7.53 7.32a.49.49 0 01-.65.27L5 6.83a.52.52 0 01-.27-.66.51.51 0 01.65-.27l1.85.77a.49.49 0 01.3.65z"/><path fill="none" d="M0 0h24v24H0z"/><path class="cls-2" d="M9 9.5h.05a5 5 0 116.34 5.28h.38a4.09 4.09 0 011.36.3A6 6 0 108 9.58a6.37 6.37 0 011-.08z"/><path d="M9 10a6 6 0 015.82 4.55l.18.74h.76a3.35 3.35 0 01-.11 6.71H3.25A2.25 2.25 0 011 19.75a2.22 2.22 0 011.41-2.08l.7-.28-.11-.75V16a6 6 0 016-6m0-1a7 7 0 00-7 7v.74A3.25 3.25 0 003.25 23h12.4a4.35 4.35 0 00.14-8.69A7 7 0 009 9z" fill="#fff"/></svg>