<svg xmlns="http://www.w3.org/2000/svg" viewBox="0 0 24 24"><path fill="none" d="M0 0h24v24H0z"/><path d="M12 21.86A14.68 14.68 0 016.85 21 13.58 13.58 0 002 20.26a.5.5 0 010-1 14.68 14.68 0 015.15.82 13.58 13.58 0 004.85.78 13.58 13.58 0 004.85-.78 14.68 14.68 0 015.15-.82.5.5 0 010 1 13.58 13.58 0 00-4.85.78 14.73 14.73 0 01-5.15.82m0-6A14.68 14.68 0 016.85 15 13.58 13.58 0 002 14.26a.5.5 0 010-1 14.68 14.68 0 015.15.82 13.58 13.58 0 004.85.78 13.58 13.58 0 004.85-.78 14.68 14.68 0 015.15-.82.5.5 0 010 1 13.58 13.58 0 00-4.85.78 14.73 14.73 0 01-5.15.82m0 3A14.68 14.68 0 016.85 18 13.58 13.58 0 002 17.26a.5.5 0 010-1 14.68 14.68 0 015.15.82 13.58 13.58 0 004.85.78 13.58 13.58 0 004.85-.78 14.68 14.68 0 015.15-.82.5.5 0 010 1 13.58 13.58 0 00-4.85.78 14.73 14.73 0 01-5.15.82" fill-rule="evenodd" fill="#fff"/><path d="M2.36 11.27c.43 0 .82 0 1.19.05a2.14 2.14 0 01.86-.65l.7-.28L5 9.64V9a6 6 0 0111.82-1.45l.18.74h.76a3.32 3.32 0 013.2 3h1a4.34 4.34 0 00-4.17-3.95A7 7 0 004 9a6 6 0 000 .74 3.26 3.26 0 00-1.64 1.53z" fill="#fff"/></svg>