<svg id="fog_light" xmlns="http://www.w3.org/2000/svg" viewBox="0 0 24 24"><defs><style>.cls-2{fill:#fff}</style></defs><path fill="none" d="M0 0h24v24H0z"/><path class="cls-2" d="M12 17.36a14.68 14.68 0 01-5.15-.82A13.58 13.58 0 002 15.76a.5.5 0 110-1 14.73 14.73 0 015.15.82 13.54 13.54 0 004.85.78 13.58 13.58 0 004.85-.78 14.68 14.68 0 015.15-.82.5.5 0 010 1 13.58 13.58 0 00-4.85.78 14.78 14.78 0 01-5.15.82zM12 20.36a17.17 17.17 0 01-2.25-.13.5.5 0 11.12-1 17.15 17.15 0 002.13.12c.64 0 1.21 0 1.75-.08a.49.49 0 01.54.45.5.5 0 01-.45.55c-.57.06-1.17.09-1.84.09zm5.67-1a.49.49 0 01-.48-.36.5.5 0 01.33-.62 14.42 14.42 0 014.07-.61.5.5 0 01.51.49.49.49 0 01-.49.51 13.16 13.16 0 00-3.8.57zM6 19.24h-.13A13.41 13.41 0 002 18.76a.5.5 0 010-1 14.21 14.21 0 014.08.5.49.49 0 01.35.61.5.5 0 01-.43.37zM4.41 10.67l.7-.29L5 9.64V9a6 6 0 0111.82-1.45l.18.74h.76a3.31 3.31 0 013 4.44h1a4 4 0 00.16-1.1 4.34 4.34 0 00-4.21-4.34A7 7 0 004 9a6 6 0 000 .74 3.25 3.25 0 00-2 3h1a2.22 2.22 0 011.41-2.07z"/></svg>