<svg xmlns="http://www.w3.org/2000/svg" viewBox="0 0 24 24"><path fill="none" d="M0 0h24v24H0z"/><path d="M11.53 20a.46.46 0 01-.19 0 .51.51 0 01-.27-.65l.48-1.16a.51.51 0 01.65-.27.5.5 0 01.27.66L12 19.73a.51.51 0 01-.47.31m-7-.31L5 18.58a.5.5 0 00-.27-.66.51.51 0 00-.65.27l-.48 1.16a.51.51 0 00.27.65.43.43 0 00.19 0 .5.5 0 00.46-.31m15 0l.48-1.11a.5.5 0 00-.93-.39l-.48 1.16a.51.51 0 00.27.65.48.48 0 00.2 0 .51.51 0 00.46-.31m-11.21 0l.48-1.15a.52.52 0 00-.27-.66.51.51 0 00-.65.27l-.48 1.16a.49.49 0 00.27.65.41.41 0 00.19 0 .51.51 0 00.46-.31m7.47 0l.48-1.15a.5.5 0 10-.92-.39l-.48 1.16a.49.49 0 00.27.65.43.43 0 00.19 0 .5.5 0 00.46-.31" fill-rule="evenodd" fill="#fff"/><path d="M11 3a6 6 0 015.82 4.55l.18.74h.76a3.35 3.35 0 01-.11 6.71H5.25A2.25 2.25 0 013 12.75a2.22 2.22 0 011.41-2.08l.7-.29L5 9.64V9a6 6 0 016-6m0-1a7 7 0 00-7 7 6 6 0 000 .74A3.25 3.25 0 005.25 16h12.4a4.35 4.35 0 00.14-8.69A7 7 0 0011 2z" fill="#fff"/></svg>