<svg id="snow_light" xmlns="http://www.w3.org/2000/svg" viewBox="0 0 24 24"><defs><style>.cls-2{fill:#fff}</style></defs><path fill="none" d="M0 0h24v24H0z"/><path class="cls-2" d="M11 3a6 6 0 015.82 4.55l.18.74h.76a3.35 3.35 0 01-.11 6.71H5.25A2.25 2.25 0 013 12.75a2.22 2.22 0 011.41-2.08l.7-.29L5 9.64V9a6 6 0 016-6m0-1a7 7 0 00-7 7 6 6 0 000 .74A3.25 3.25 0 005.25 16h12.4a4.35 4.35 0 00.14-8.69A7 7 0 0011 2zM13.82 20.6l-.82-.47.82-.47A.49.49 0 0014 19a.51.51 0 00-.68-.19l-.82.48v-.95a.5.5 0 00-1 0v.95l-.82-.48A.51.51 0 0010 19a.49.49 0 00.18.68l.82.47-.82.47a.51.51 0 00-.18.69.5.5 0 00.43.25.55.55 0 00.25-.07l.82-.49v.94a.5.5 0 001 0V21l.82.47a.55.55 0 00.25.07.5.5 0 00.43-.25.51.51 0 00-.18-.69z"/></svg>