<svg id="snow_heavy" xmlns="http://www.w3.org/2000/svg" viewBox="0 0 24 24"><defs><style>.cls-2{fill:#fff}</style></defs><path fill="none" d="M0 0h24v24H0z"/><path class="cls-2" d="M11 1a6 6 0 015.82 4.55l.18.74h.76a3.35 3.35 0 01-.11 6.71H5.25A2.25 2.25 0 013 10.75a2.22 2.22 0 011.41-2.08l.7-.29L5 7.64V7a6 6 0 016-6m0-1a7 7 0 00-7 7 6 6 0 000 .74A3.25 3.25 0 005.25 14h12.4a4.35 4.35 0 00.14-8.69A7 7 0 0011 0zM6.5 18.29a.5.5 0 01-.43.25.59.59 0 01-.25-.07L5 18v.94a.5.5 0 01-.5.5.5.5 0 01-.5-.5V18l-.81.47a.59.59 0 01-.25.07.51.51 0 01-.44-.25.52.52 0 01.19-.69l.81-.47-.81-.47A.51.51 0 012.5 16a.52.52 0 01.69-.19l.81.48v-.95a.51.51 0 01.5-.5.5.5 0 01.5.5v.95l.82-.48a.5.5 0 01.68.19.49.49 0 01-.18.68l-.82.47.82.47a.51.51 0 01.18.67zm14.81-.69l-.81-.47.81-.47a.51.51 0 00.19-.66.52.52 0 00-.69-.19l-.81.48v-.95a.51.51 0 00-.5-.5.5.5 0 00-.5.5v.95l-.82-.48a.5.5 0 00-.68.19.49.49 0 00.18.68l.82.47-.82.47a.51.51 0 00-.18.69.5.5 0 00.43.25.59.59 0 00.25-.07L19 18v.94a.5.5 0 00.5.5.5.5 0 00.5-.5V18l.81.47a.59.59 0 00.25.07.51.51 0 00.44-.25.52.52 0 00-.19-.69zm-7.49 0l-.82-.47.82-.47A.49.49 0 0014 16a.51.51 0 00-.68-.19l-.82.48v-.95a.5.5 0 00-1 0v.95l-.82-.48A.51.51 0 0010 16a.49.49 0 00.18.68l.82.47-.82.47a.51.51 0 00-.18.69.5.5 0 00.43.25.55.55 0 00.25-.07l.82-.49v.94a.5.5 0 001 0V18l.82.47a.55.55 0 00.25.07.5.5 0 00.43-.25.51.51 0 00-.18-.69zm-3.57 2.23a.49.49 0 00-.68-.18l-.82.47v-.94a.5.5 0 00-.5-.5.5.5 0 00-.5.5v.94l-.82-.47a.5.5 0 00-.5.86l.82.47-.82.48a.5.5 0 00.25.93.43.43 0 00.25-.07l.82-.47v.94a.5.5 0 00.5.5.5.5 0 00.5-.5v-.94l.82.47a.45.45 0 00.25.07.5.5 0 00.25-.93L9.25 21l.82-.48a.49.49 0 00.18-.69zm7.5 0a.5.5 0 00-.68-.18l-.82.47v-.94a.5.5 0 00-.5-.5.5.5 0 00-.5.5v.94l-.82-.47a.5.5 0 00-.5.86l.82.48-.82.47a.5.5 0 00.25.93.45.45 0 00.25-.07l.82-.47v.94a.5.5 0 00.5.5.5.5 0 00.5-.5v-.94l.82.47a.43.43 0 00.25.07.5.5 0 00.25-.93l-.82-.46.82-.48a.5.5 0 00.18-.69z"/></svg>