<svg id="ice_pellets" xmlns="http://www.w3.org/2000/svg" viewBox="0 0 24 24"><defs><style>.cls-2{fill:#fff;fill-rule:evenodd}</style></defs><path fill="none" d="M0 0h24v24H0z"/><path class="cls-2" d="M13.51 21L12 17.27 8.28 18.8l1.53 3.69zm-4-7.37l-1.85.76.77 1.85 1.84-.77zM4.8 15.32l-1.8.77.77 1.84 1.84-.76zm12.69-1.83l-1.85.76.77 1.85 1.84-.76zM20.47 5a.5.5 0 01.93.39l-2.68 6.46a.5.5 0 01-.47.31.46.46 0 01-.19 0 .5.5 0 01-.27-.65zm-6.18-3a.49.49 0 01.27.65l-3.83 9.24a.49.49 0 01-.46.31.43.43 0 01-.19 0 .51.51 0 01-.27-.65l3.83-9.24a.49.49 0 01.65-.31zM8.16 5.89a.5.5 0 01.93.38L6 13.66a.47.47 0 01-.46.31.43.43 0 01-.19 0 .5.5 0 01-.27-.65zm8 .1a.49.49 0 01.65-.27.51.51 0 01.27.65l-3.88 9.24a.5.5 0 01-.46.31.43.43 0 01-.19 0 .49.49 0 01-.27-.65z"/></svg>