<svg id="ice_pellets_heavy" xmlns="http://www.w3.org/2000/svg" viewBox="0 0 24 24"><defs><style>.cls-2{fill:#fff;fill-rule:evenodd}</style></defs><path fill="none" d="M0 0h24v24H0z"/><path class="cls-2" d="M13 21l-1.54-3.69-3.68 1.49 1.53 3.69zm-3.5-7.37l-1.85.76.77 1.85 1.84-.77zm10 7.27L18 17.17l-3.7 1.53 1.53 3.7zM6.1 21l-1.53-3.73-3.7 1.53 1.54 3.69zm9.9-7.51l-1.85.76.77 1.85 1.84-.76zM14.29 2a.49.49 0 01.27.65l-3.83 9.24a.49.49 0 01-.46.31.43.43 0 01-.19 0 .51.51 0 01-.27-.65l3.83-9.24a.49.49 0 01.65-.31zm1.32 4a.49.49 0 01.65-.27.51.51 0 01.27.65l-3.83 9.23a.5.5 0 01-.46.31.43.43 0 01-.19 0 .49.49 0 01-.27-.65zm6.48-.1a.5.5 0 11.92.38l-3.83 9.24a.48.48 0 01-.46.31.43.43 0 01-.19 0 .51.51 0 01-.27-.65zM8.7 6a.5.5 0 01.92.38L5.8 15.61a.51.51 0 01-.46.31.48.48 0 01-.2 0 .51.51 0 01-.27-.65zm12.07-4.06a.49.49 0 01.27.65l-3.82 9.24a.5.5 0 01-.47.31.46.46 0 01-.19 0 .5.5 0 01-.27-.65l3.83-9.24a.5.5 0 01.65-.31z"/></svg>