<svg id="ice_pellets_light" xmlns="http://www.w3.org/2000/svg" viewBox="0 0 24 24"><defs><style>.cls-2{fill:#fff;fill-rule:evenodd}</style></defs><path fill="none" d="M0 0h24v24H0z"/><path class="cls-2" d="M12.26 12.34l-1.84.76.76 1.9 1.82-.82zm-5.21 1.73l-1.84.77.79 1.84 1.85-.76zM15.23 16l-1.85.76.77 1.85 1.85-.74zM15.13 5.41a.49.49 0 01.27.65l-1.91 4.62A.5.5 0 0113 11a.43.43 0 01-.19 0 .49.49 0 01-.27-.65l1.91-4.62a.49.49 0 01.68-.32zM8.89 8.34a.5.5 0 01.92.38l-1.53 3.7a.49.49 0 01-.46.3.63.63 0 01-.19 0 .5.5 0 01-.27-.72zm8.94.09a.5.5 0 01.93.39l-2.3 5.54a.51.51 0 01-.46.31.41.41 0 01-.19 0 .49.49 0 01-.27-.65z"/></svg>