<svg id="tstorm" xmlns="http://www.w3.org/2000/svg" viewBox="0 0 24 24"><defs><style>.cls-2{fill:#fff;fill-rule:evenodd}</style></defs><path fill="none" d="M0 0h24v24H0z"/><path class="cls-2" d="M16.77 22.17a.5.5 0 01-.27-.66l1.62-3.92a.5.5 0 01.66-.27.51.51 0 01.27.65l-1.63 3.93a.51.51 0 01-.65.27M3 21.9L4.6 18a.5.5 0 00-.92-.38l-1.63 3.89a.5.5 0 10.95.39m3.73 0L8.34 18a.5.5 0 00-.27-.65.49.49 0 00-.65.27l-1.63 3.89a.5.5 0 00.27.66.51.51 0 00.65-.27m8.84 0l.35-.83a.51.51 0 00-.28-.66.5.5 0 00-.65.28l-.34.82a.5.5 0 00.27.66.51.51 0 00.65-.27m-7 0l.34-.83a.49.49 0 00-.27-.65.49.49 0 00-.65.27l-.34.82a.5.5 0 00.27.66.51.51 0 00.65-.27m-3.74 0l.35-.83a.5.5 0 00-.93-.38l-.34.82a.52.52 0 00.27.66.5.5 0 00.65-.27m11.73-2.45l.64-1.45a.51.51 0 00-.27-.65.49.49 0 00-.65.27l-.62 1.48a.51.51 0 00.27.65.5.5 0 00.66-.27m-10.71 0L6.47 18a.5.5 0 00-.92-.38l-.62 1.48a.5.5 0 00.28.65.49.49 0 00.65-.27"/><path class="cls-2" d="M15.64 13.7h-3l.54-3.19a.67.67 0 00-.65-.77H9.28a.67.67 0 00-.66.56l-.91 5.94a.66.66 0 00.65.76h2.52l-.1.75-.55 3.95a.68.68 0 00.23.6.7.7 0 00.24.13.66.66 0 00.76-.28l4.73-7.44a.65.65 0 00-.55-1.01z"/><path d="M17.79 7.31A7 7 0 004 9a6 6 0 000 .74A3.25 3.25 0 005.25 16h1.48l.16-1H5.25A2.25 2.25 0 013 12.75a2.22 2.22 0 011.41-2.08l.7-.28L5 9.64V9a6 6 0 0111.82-1.45l.18.74h.76a3.35 3.35 0 01-.11 6.71h-.5a1.36 1.36 0 01-.11.25l-.48.75h1.09a4.35 4.35 0 00.14-8.69z" fill="#fff"/><path class="cls-2" d="M24 8.58a3.35 3.35 0 00-3.16-3.41A5.31 5.31 0 0015.75 1a5.1 5.1 0 00-3.68 1.59l1.09.41a4.06 4.06 0 012.59-1 4.3 4.3 0 014.12 3.4l.17.75h.77A2.33 2.33 0 0123 8.58a2.41 2.41 0 01-1.53 2.28l.16 1A3.38 3.38 0 0024 8.58z"/></svg>