<svg id="Layer_1" data-name="Layer 1" xmlns="http://www.w3.org/2000/svg" viewBox="0 0 92 56.62"><defs><style>.cls-1{fill:#fff;}</style></defs><title>bus</title><path class="cls-1" d="M80,0H16.5a12,12,0,0,0-12,12V41.49H1a1,1,0,0,0-1,1H0v5.13a1,1,0,0,0,1,1H17.08a9,9,0,0,0,17.89,0H69.31a9,9,0,0,0,17.88,0H91a1,1,0,0,0,1-1h0V36.26a1,1,0,0,0-1-1H88.36V23.67H91a1,1,0,0,0,1-1h0V12A12,12,0,0,0,80,0ZM16.5,2H80A10,10,0,0,1,90,12v5.49H6.5V12A10,10,0,0,1,16.5,2ZM6.5,23.76a6.63,6.63,0,0,1,5.64,6.54V41.49H6.5ZM2,46.62V43.49H12.14v3.13Zm24,8a7,7,0,1,1,7-7A7,7,0,0,1,26,54.62Zm52.22,0a7,7,0,1,1,7-7A7,7,0,0,1,78.25,54.62Zm6.4-23.49.75-.7A1,1,0,1,0,84,29l-2.8,2.59A1,1,0,0,0,82.6,33h0l.57-.53,1.6,2.06a32.94,32.94,0,0,0-6.18-.76V27.67a4,4,0,0,1,4-4h3.77v9.67Zm-2.06-9.46a6,6,0,0,0-6,6v7.11a1,1,0,0,0,1,1h0a32,32,0,0,1,9.47,1.43,1,1,0,0,0,.3,0H90v9.36H87.19a9,9,0,0,0-17.88,0H35a9,9,0,0,0-17.89,0H14.14V30.3A8.64,8.64,0,0,0,6.5,21.74V19.49H90v2.18Z"/><path class="cls-1" d="M78.25,42.62a5,5,0,1,0,5,5h0A5,5,0,0,0,78.25,42.62Zm0,8a3,3,0,1,1,3-3A3,3,0,0,1,78.25,50.62Z"/><path class="cls-1" d="M26,42.62a5,5,0,1,0,5,5h0A5,5,0,0,0,26,42.62Zm0,8a3,3,0,1,1,3-3A3,3,0,0,1,26,50.62Z"/><path class="cls-1" d="M29.19,25.21H18.25a1,1,0,0,0-1,1h0v7.43a1,1,0,0,0,1,1H29.19a1,1,0,0,0,1-1h0V26.21a1,1,0,0,0-1-1Zm-1,7.43H19.25V27.21h8.94Z"/><path class="cls-1" d="M43.67,25.21H32.73a1,1,0,0,0-1,1h0v7.43a1,1,0,0,0,1,1H43.67a1,1,0,0,0,1-1h0V26.21a1,1,0,0,0-1-1Zm-1,7.43H33.73V27.21h8.94Z"/><path class="cls-1" d="M58.15,25.21H47.21a1,1,0,0,0-1,1h0v7.43a1,1,0,0,0,1,1H58.15a1,1,0,0,0,1-1h0V26.21a1,1,0,0,0-1-1Zm-1,7.43H48.21V27.21h8.94Z"/><path class="cls-1" d="M72.63,25.24H61.69a1,1,0,0,0-1,1h0v7.44a1,1,0,0,0,1,1H72.63a1,1,0,0,0,1-1h0V26.24a1,1,0,0,0-1-1Zm-1,7.44H62.69V27.24h8.94Z"/><path class="cls-1" d="M13.82,14.85H24.76a1,1,0,0,0,1-1h0V6.42a1,1,0,0,0-1-1H21.25a8.44,8.44,0,0,0-8.43,8.43,1,1,0,0,0,1,1Zm7.43-7.43h2.51v5.43H14.9A6.44,6.44,0,0,1,21.25,7.42Z"/><path class="cls-1" d="M28.3,14.85H39.24a1,1,0,0,0,1-1h0V6.42a1,1,0,0,0-1-1H28.3a1,1,0,0,0-1,1h0v7.43a1,1,0,0,0,1,1Zm1-7.43h8.94v5.43H29.3Z"/><path class="cls-1" d="M42.78,14.85H53.72a1,1,0,0,0,1-1h0V6.42a1,1,0,0,0-1-1H42.78a1,1,0,0,0-1,1h0v7.43a1,1,0,0,0,1,1Zm1-7.43h8.94v5.43H43.78Z"/><path class="cls-1" d="M57.26,14.85H68.2a1,1,0,0,0,1-1h0V6.42a1,1,0,0,0-1-1H57.26a1,1,0,0,0-1,1h0v7.43a1,1,0,0,0,1,1Zm1-7.43H67.2v5.43H58.26Z"/><path class="cls-1" d="M71.74,14.85H82.68a1,1,0,0,0,1-1h0a8.43,8.43,0,0,0-8.43-8.43H71.74a1,1,0,0,0-1,1h0v7.43a1,1,0,0,0,1,1Zm1-7.43h2.51a6.43,6.43,0,0,1,6.35,5.43H72.74Z"/></svg>