<svg id="Layer_1" data-name="Layer 1" xmlns="http://www.w3.org/2000/svg" viewBox="0 0 92 56.62"><defs><style>.cls-1{fill:#fff}</style></defs><path class="cls-1" d="M80 0H16.5a12 12 0 00-12 12v29.49H1a1 1 0 00-1 1v5.13a1 1 0 001 1h16.08a9 9 0 0017.89 0h34.34a9 9 0 0017.88 0H91a1 1 0 001-1V36.26a1 1 0 00-1-1h-2.64V23.67H91a1 1 0 001-1V12A12 12 0 0080 0zM16.5 2H80a10 10 0 0110 10v5.49H6.5V12a10 10 0 0110-10zm-10 21.76a6.63 6.63 0 015.64 6.54v11.19H6.5zM2 46.62v-3.13h10.14v3.13zm24 8a7 7 0 117-7 7 7 0 01-7 7zm52.22 0a7 7 0 117-7 7 7 0 01-6.97 7zm6.4-23.49l.75-.7A1 1 0 1084 29l-2.8 2.59A1 1 0 0082.6 33l.57-.53 1.6 2.06a32.94 32.94 0 00-6.18-.76v-6.1a4 4 0 014-4h3.77v9.67zm-2.06-9.46a6 6 0 00-6 6v7.11a1 1 0 001 1 32 32 0 019.47 1.43 1 1 0 00.3 0H90v9.36h-2.81a9 9 0 00-17.88 0H35a9 9 0 00-17.89 0h-2.97V30.3a8.64 8.64 0 00-7.64-8.56v-2.25H90v2.18z"/><path class="cls-1" d="M78.25 42.62a5 5 0 105 5 5 5 0 00-5-5zm0 8a3 3 0 113-3 3 3 0 01-3 3zM26 42.62a5 5 0 105 5 5 5 0 00-5-5zm0 8a3 3 0 113-3 3 3 0 01-3 3zM29.19 25.21H18.25a1 1 0 00-1 1v7.43a1 1 0 001 1h10.94a1 1 0 001-1v-7.43a1 1 0 00-1-1zm-1 7.43h-8.94v-5.43h8.94zM43.67 25.21H32.73a1 1 0 00-1 1v7.43a1 1 0 001 1h10.94a1 1 0 001-1v-7.43a1 1 0 00-1-1zm-1 7.43h-8.94v-5.43h8.94zM58.15 25.21H47.21a1 1 0 00-1 1v7.43a1 1 0 001 1h10.94a1 1 0 001-1v-7.43a1 1 0 00-1-1zm-1 7.43h-8.94v-5.43h8.94zM72.63 25.24H61.69a1 1 0 00-1 1v7.44a1 1 0 001 1h10.94a1 1 0 001-1v-7.44a1 1 0 00-1-1zm-1 7.44h-8.94v-5.44h8.94zM13.82 14.85h10.94a1 1 0 001-1V6.42a1 1 0 00-1-1h-3.51a8.44 8.44 0 00-8.43 8.43 1 1 0 001 1zm7.43-7.43h2.51v5.43H14.9a6.44 6.44 0 016.35-5.43zM28.3 14.85h10.94a1 1 0 001-1V6.42a1 1 0 00-1-1H28.3a1 1 0 00-1 1v7.43a1 1 0 001 1zm1-7.43h8.94v5.43H29.3zM42.78 14.85h10.94a1 1 0 001-1V6.42a1 1 0 00-1-1H42.78a1 1 0 00-1 1v7.43a1 1 0 001 1zm1-7.43h8.94v5.43h-8.94zM57.26 14.85H68.2a1 1 0 001-1V6.42a1 1 0 00-1-1H57.26a1 1 0 00-1 1v7.43a1 1 0 001 1zm1-7.43h8.94v5.43h-8.94zM71.74 14.85h10.94a1 1 0 001-1 8.43 8.43 0 00-8.43-8.43h-3.51a1 1 0 00-1 1v7.43a1 1 0 001 1zm1-7.43h2.51a6.43 6.43 0 016.35 5.43h-8.86z"/></svg>