<svg version="1.1" viewBox="0 0 512 512" xmlns="http://www.w3.org/2000/svg" xmlns:xlink="http://www.w3.org/1999/xlink">
	<defs>
		<style>path{fill:#fff;}</style>
	</defs>
	<title>calendar</title>
	<path d="M441.2148438,34.9250488h-45.8828125v39.0673828c0,8.9638672-7.2919922,16.2568359-16.2558594,16.2568359   s-16.2568359-7.2929688-16.2568359-16.2568359V34.9250488H149.1806641v39.0673828   c0,8.9638672-7.2929688,16.2568359-16.2568359,16.2568359s-16.2558594-7.2929688-16.2558594-16.2568359V34.9250488H70.7851562   c-22.6474609,0-41.0722656,18.4248047-41.0722656,41.0717773V446.427002c0,22.6464844,18.4248047,41.0712891,41.0722656,41.0712891   h370.4296875c22.6474609,0,41.0722656-18.4248047,41.0722656-41.0712891V75.9968262   C482.2871094,53.3498535,463.8623047,34.9250488,441.2148438,34.9250488z M70.7851562,52.9250488h27.8828125v21.0673828   c0,18.8891602,15.3671875,34.2568359,34.2558594,34.2568359c18.8896484,0,34.2568359-15.3676758,34.2568359-34.2568359V52.9250488   h177.6386719v21.0673828c0,18.8891602,15.3671875,34.2568359,34.2568359,34.2568359   c18.8886719,0,34.2558594-15.3676758,34.2558594-34.2568359V52.9250488h27.8828125   c12.7216797,0,23.0722656,10.3500977,23.0722656,23.0717773v79.9995117H47.7128906V75.9968262   C47.7128906,63.2751465,58.0634766,52.9250488,70.7851562,52.9250488z M441.2148438,469.498291H70.7851562   c-12.7216797,0-23.0722656-10.3496094-23.0722656-23.0712891V173.9963379h416.5742188V446.427002   C464.2871094,459.1486816,453.9365234,469.498291,441.2148438,469.498291z"/>
	<path d="M133.3251953,81.7897949c4.9707031,0,9-4.0292969,9-9V33.501709c0-4.9707031-4.0292969-9-9-9s-9,4.0292969-9,9v39.2880859   C124.3251953,77.760498,128.3544922,81.7897949,133.3251953,81.7897949z"/>
	<path d="M379.4765625,81.7897949c4.9707031,0,9-4.0292969,9-9V33.501709c0-4.9707031-4.0292969-9-9-9s-9,4.0292969-9,9v39.2880859   C370.4765625,77.760498,374.5058594,81.7897949,379.4765625,81.7897949z"/>
	<path d="M83.3730469,273.6496582h66.3388672v-66.3383789H83.3730469V273.6496582z M101.3730469,225.3112793h30.3388672v30.3383789   h-30.3388672V225.3112793z"/>
	<path d="M176.2412109,273.6496582h66.3378906v-66.3383789h-66.3378906V273.6496582z M194.2412109,225.3112793h30.3378906   v30.3383789h-30.3378906V225.3112793z"/>
	<path d="M269.1083984,273.6496582h66.3388672v-66.3383789h-66.3388672V273.6496582z M287.1083984,225.3112793h30.3388672   v30.3383789h-30.3388672V225.3112793z"/>
	<path d="M361.9765625,273.6496582h66.3378906v-66.3383789h-66.3378906V273.6496582z M379.9765625,225.3112793h30.3378906   v30.3383789h-30.3378906V225.3112793z"/>
	<path d="M83.3730469,354.114502h66.3388672v-66.3378906H83.3730469V354.114502z M101.3730469,305.7766113h30.3388672v30.3378906   h-30.3388672V305.7766113z"/>
	<path d="M176.2412109,354.114502h66.3378906v-66.3378906h-66.3378906V354.114502z M194.2412109,305.7766113h30.3378906v30.3378906   h-30.3378906V305.7766113z"/>
	<path d="M269.1083984,354.114502h66.3388672v-66.3378906h-66.3388672V354.114502z M287.1083984,305.7766113h30.3388672v30.3378906   h-30.3388672V305.7766113z"/>
	<path d="M361.9765625,354.114502h66.3378906v-66.3378906h-66.3378906V354.114502z M379.9765625,305.7766113h30.3378906v30.3378906   h-30.3378906V305.7766113z"/>
	<path d="M83.3730469,435.3820801h66.3388672v-66.3388672H83.3730469V435.3820801z M101.3730469,387.0432129h30.3388672v30.3388672   h-30.3388672V387.0432129z"/>
	<path d="M176.2412109,435.3820801h66.3378906v-66.3388672h-66.3378906V435.3820801z M194.2412109,387.0432129h30.3378906   v30.3388672h-30.3378906V387.0432129z"/>
	<path d="M269.1083984,435.3820801h66.3388672v-66.3388672h-66.3388672V435.3820801z M287.1083984,387.0432129h30.3388672   v30.3388672h-30.3388672V387.0432129z"/>
	<path d="M361.9765625,435.3820801h66.3378906v-66.3388672h-66.3378906V435.3820801z M379.9765625,387.0432129h30.3378906   v30.3388672h-30.3378906V387.0432129z"/>
</svg>