<svg viewBox="0 0 512 512" xmlns="http://www.w3.org/2000/svg"><defs><style>path{fill:#fff}</style></defs><path d="M441.215 34.925h-45.883v39.067c0 8.964-7.292 16.257-16.256 16.257s-16.257-7.293-16.257-16.257V34.925H149.181v39.067c0 8.964-7.293 16.257-16.257 16.257s-16.256-7.293-16.256-16.257V34.925H70.785c-22.647 0-41.072 18.425-41.072 41.072v370.43c0 22.646 18.425 41.071 41.072 41.071h370.43c22.647 0 41.072-18.425 41.072-41.071V75.997c0-22.647-18.425-41.072-41.072-41.072zm-370.43 18h27.883v21.067c0 18.89 15.367 34.257 34.256 34.257 18.89 0 34.257-15.367 34.257-34.257V52.925h177.638v21.067c0 18.89 15.368 34.257 34.257 34.257 18.889 0 34.256-15.367 34.256-34.257V52.925h27.883c12.722 0 23.072 10.35 23.072 23.072v80H47.713v-80c0-12.722 10.35-23.072 23.072-23.072zm370.43 416.573H70.785c-12.722 0-23.072-10.35-23.072-23.071v-272.43h416.574v272.43c0 12.722-10.35 23.071-23.072 23.071z"/><path d="M133.325 81.79a9 9 0 009-9V33.502a9 9 0 00-18 0V72.79a9 9 0 009 9zM379.477 81.79a9 9 0 009-9V33.502a9 9 0 00-18 0V72.79a9 9 0 009 9zM83.373 273.65h66.339V207.31H83.373v66.339zm18-48.339h30.339v30.339h-30.339V225.31zM176.241 273.65h66.338V207.31h-66.338v66.339zm18-48.339h30.338v30.339h-30.338V225.31zM269.108 273.65h66.34V207.31h-66.34v66.339zm18-48.339h30.34v30.339h-30.34V225.31zM361.977 273.65h66.337V207.31h-66.337v66.339zm18-48.339h30.337v30.339h-30.337V225.31zM83.373 354.115h66.339v-66.338H83.373v66.338zm18-48.338h30.339v30.338h-30.339v-30.338zM176.241 354.115h66.338v-66.338h-66.338v66.338zm18-48.338h30.338v30.338h-30.338v-30.338zM269.108 354.115h66.34v-66.338h-66.34v66.338zm18-48.338h30.34v30.338h-30.34v-30.338zM361.977 354.115h66.337v-66.338h-66.337v66.338zm18-48.338h30.337v30.338h-30.337v-30.338zM83.373 435.382h66.339v-66.339H83.373v66.34zm18-48.339h30.339v30.34h-30.339v-30.34zM176.241 435.382h66.338v-66.339h-66.338v66.34zm18-48.339h30.338v30.34h-30.338v-30.34zM269.108 435.382h66.34v-66.339h-66.34v66.34zm18-48.339h30.34v30.34h-30.34v-30.34zM361.977 435.382h66.337v-66.339h-66.337v66.34zm18-48.339h30.337v30.34h-30.337v-30.34z"/></svg>