<svg enable-background="new 0 0 100 100" version="1.0" viewBox="0 0 100 100" x="0px" xml:space="preserve" xmlns="http://www.w3.org/2000/svg" xmlns:xlink="http://www.w3.org/1999/xlink" y="0px">
<style type="text/css">
	polygon, circle, path { fill:#FFFFFF; }
</style>
	<circle cx="50.4893036" cy="50.0713501" r="24.7442436"/>
	<path d="M57.7412033,19.3172264L50.4893074,5.25l-7.2518959,14.0672264  c2.3301125-0.5486965,4.7560997-0.8475513,7.2518959-0.8475513C52.9874954,18.4696751,55.4111519,18.7685299,57.7412033,19.3172264z  "/>
	<path d="M43.2374115,80.9327698L50.4893074,95l7.2518959-14.0672302c-2.3300514,0.5486984-4.7537079,0.8475571-7.2518959,0.8475571  C47.9935112,81.7803268,45.567524,81.4814682,43.2374115,80.9327698z"/>
	<path d="M5.6144285,50.1251183l14.0672274,7.2518997c-0.5463066-2.3301125-0.8451633-4.7560997-0.8451633-7.2518997  c0-2.4960365,0.2988567-4.9217834,0.8451633-7.2518959L5.6144285,50.1251183z"/>
	<path d="M95.3641891,50.1251183l-14.0648346-7.2518959c0.5463028,2.3301125,0.8451614,4.7558594,0.8451614,7.2518959  c0,2.4958-0.2988586,4.9217873-0.8451614,7.2518997L95.3641891,50.1251183z"/>
	<path d="M29.0300808,27.7435055c1.7651577-1.7673092,3.6914577-3.2709084,5.7251072-4.5318375l-15.0735321-4.8165874  l4.8189774,15.0735321C25.7613239,31.4325714,27.2649231,29.5086632,29.0300808,27.7435055z"/>
	<path d="M73.7954559,72.5088882c-1.765152,1.7649155-3.691452,3.2687531-5.7251053,4.5294418l15.0735321,4.8189774  l-4.8189163-15.0756836C77.0663681,68.8174286,75.560379,70.7413406,73.7954559,72.5088882z"/>
	<path d="M24.5006332,66.7816238l-4.8189774,15.0756836l15.0735321-4.8189774  c-2.0336494-1.2606888-3.9599495-2.7645264-5.7251072-4.5294418C27.2649231,70.7413406,25.7613239,68.8174286,24.5006332,66.7816238  z"/>
	<path d="M78.3249664,33.4686127l4.8189163-15.0759239L68.0703506,23.211668  c2.0336533,1.2609291,3.9599533,2.7645283,5.7251053,4.5318375C75.560379,29.5086632,77.0663681,31.4325714,78.3249664,33.4686127z"/>
</svg>