<svg id="clear_day" xmlns="http://www.w3.org/2000/svg" viewBox="0 0 24 24"><defs><style>.cls-2{fill:#fff;fill-rule:evenodd}</style></defs><path fill="none" d="M0 0h24v24H0z"/><path class="cls-2" d="M12 6a6 6 0 106 6 6 6 0 00-6-6zm0 11a5 5 0 115-5 5 5 0 01-5 5zM12 5a.5.5 0 01-.5-.5v-2A.5.5 0 0112 2a.5.5 0 01.5.5v2a.5.5 0 01-.5.5zM12 22a.5.5 0 01-.5-.5v-2a.5.5 0 01.5-.5.5.5 0 01.5.5v2a.5.5 0 01-.5.5zM5 12a.5.5 0 01-.5.5h-2A.5.5 0 012 12a.5.5 0 01.5-.5h2a.5.5 0 01.5.5zM22 12a.5.5 0 01-.5.5h-2a.5.5 0 01-.5-.5.5.5 0 01.5-.5h2a.5.5 0 01.5.5zM17 7.05a.5.5 0 010-.71l1.41-1.41a.5.5 0 01.71 0 .5.5 0 010 .71l-1.46 1.41a.5.5 0 01-.66 0zM4.93 19.07a.5.5 0 010-.71L6.34 17a.5.5 0 01.71 0 .5.5 0 010 .71l-1.41 1.36a.5.5 0 01-.71 0zM7.05 7.05a.5.5 0 01-.71 0L4.93 5.64a.5.5 0 010-.71.5.5 0 01.71 0l1.41 1.41a.5.5 0 010 .71zM19.07 19.07a.5.5 0 01-.71 0L17 17.66a.5.5 0 010-.66.5.5 0 01.71 0l1.41 1.41a.5.5 0 01-.05.66z"/></svg>