<svg id="cloudy" xmlns="http://www.w3.org/2000/svg" viewBox="0 0 24 24"><defs><style>.cls-1{fill:none;}.cls-2,.cls-3{fill:#fff;}.cls-2{fill-rule:evenodd;}</style></defs><rect class="cls-1" width="24" height="24"/><path class="cls-2" d="M20.84,6.47a5.31,5.31,0,0,0-5.09-4.18,5.26,5.26,0,0,0-4.9,3.55,8.48,8.48,0,0,1,1,.15,4.26,4.26,0,0,1,3.89-2.7A4.3,4.3,0,0,1,19.87,6.7l.17.74.77,0A2.33,2.33,0,0,1,23,9.88a2.34,2.34,0,0,1-2.26,2.41H19.8a4.42,4.42,0,0,1,1.29,1A3.35,3.35,0,0,0,24,9.88,3.35,3.35,0,0,0,20.84,6.47Z"/><path class="cls-3" d="M10.24,6.29A7,7,0,0,1,17,11.56l.18.74.76,0a3.93,3.93,0,0,1-.13,7.86H3.7A2.7,2.7,0,0,1,1,17.49,2.67,2.67,0,0,1,2.69,15l.7-.28L3.32,14a6.29,6.29,0,0,1,0-.73,7,7,0,0,1,7-6.95m0-1a8,8,0,0,0-8,8,7.56,7.56,0,0,0,0,.83A3.69,3.69,0,0,0,3.7,21.18H17.81A4.93,4.93,0,0,0,18,11.32a8,8,0,0,0-7.73-6Z"/></svg>