<svg id="flurries" xmlns="http://www.w3.org/2000/svg" viewBox="0 0 24 24"><defs><style>.cls-1{fill:#fff;}.cls-2{fill:none;}</style></defs><path class="cls-1" d="M18.4,22a3,3,0,0,1-2.12-.88.5.5,0,1,1,.71-.71A2,2,0,1,0,18.4,17H3.25a.5.5,0,0,1,0-1H18.4a3,3,0,0,1,0,6Zm-4.5-1a3,3,0,0,0-3-3H3.25a.5.5,0,0,0,0,1H10.9a2,2,0,1,1-2,2,.5.5,0,0,0-.5-.5.5.5,0,0,0-.5.5,3,3,0,0,0,6,0Z"/><rect class="cls-2" width="24" height="24"/><path class="cls-1" d="M11,2a6,6,0,0,1,5.82,4.55l.18.74.76,0A3.35,3.35,0,0,1,17.65,14H5.25A2.25,2.25,0,0,1,3,11.75,2.22,2.22,0,0,1,4.41,9.67l.7-.29L5,8.64C5,8.41,5,8.2,5,8a6,6,0,0,1,6-6m0-1A7,7,0,0,0,4,8a6,6,0,0,0,0,.74A3.25,3.25,0,0,0,5.25,15h12.4a4.35,4.35,0,0,0,.14-8.69A7,7,0,0,0,11,1Z"/></svg>