<svg id="flurries" xmlns="http://www.w3.org/2000/svg" viewBox="0 0 24 24"><defs><style>.cls-1{fill:#fff}</style></defs><path class="cls-1" d="M18.4 22a3 3 0 01-2.12-.88.5.5 0 11.71-.71A2 2 0 1018.4 17H3.25a.5.5 0 010-1H18.4a3 3 0 010 6zm-4.5-1a3 3 0 00-3-3H3.25a.5.5 0 000 1h7.65a2 2 0 11-2 2 .5.5 0 00-.5-.5.5.5 0 00-.5.5 3 3 0 006 0z"/><path fill="none" d="M0 0h24v24H0z"/><path class="cls-1" d="M11 2a6 6 0 015.82 4.55l.18.74h.76a3.35 3.35 0 01-.11 6.71H5.25A2.25 2.25 0 013 11.75a2.22 2.22 0 011.41-2.08l.7-.29L5 8.64V8a6 6 0 016-6m0-1a7 7 0 00-7 7 6 6 0 000 .74A3.25 3.25 0 005.25 15h12.4a4.35 4.35 0 00.14-8.69A7 7 0 0011 1z"/></svg>