<svg id="fog" xmlns="http://www.w3.org/2000/svg" viewBox="0 0 24 24"><defs><style>.cls-1{fill:none;}.cls-2,.cls-3{fill:#fff;}.cls-2{fill-rule:evenodd;}</style></defs><rect class="cls-1" width="24" height="24"/><path class="cls-2" d="M12,21.86A14.68,14.68,0,0,1,6.85,21,13.58,13.58,0,0,0,2,20.26a.5.5,0,0,1,0-1,14.68,14.68,0,0,1,5.15.82,13.58,13.58,0,0,0,4.85.78,13.58,13.58,0,0,0,4.85-.78A14.68,14.68,0,0,1,22,19.26a.5.5,0,0,1,0,1,13.58,13.58,0,0,0-4.85.78,14.73,14.73,0,0,1-5.15.82m0-6A14.68,14.68,0,0,1,6.85,15,13.58,13.58,0,0,0,2,14.26a.5.5,0,0,1,0-1,14.68,14.68,0,0,1,5.15.82,13.58,13.58,0,0,0,4.85.78,13.58,13.58,0,0,0,4.85-.78A14.68,14.68,0,0,1,22,13.26a.5.5,0,0,1,0,1,13.58,13.58,0,0,0-4.85.78,14.73,14.73,0,0,1-5.15.82m0,3A14.68,14.68,0,0,1,6.85,18,13.58,13.58,0,0,0,2,17.26a.5.5,0,0,1,0-1,14.68,14.68,0,0,1,5.15.82,13.58,13.58,0,0,0,4.85.78,13.58,13.58,0,0,0,4.85-.78A14.68,14.68,0,0,1,22,16.26a.5.5,0,0,1,0,1,13.58,13.58,0,0,0-4.85.78,14.73,14.73,0,0,1-5.15.82"/><path class="cls-3" d="M2.36,11.27c.43,0,.82,0,1.19.05a2.14,2.14,0,0,1,.86-.65l.7-.28L5,9.64C5,9.41,5,9.2,5,9A6,6,0,0,1,16.82,7.55l.18.74.76,0a3.32,3.32,0,0,1,3.2,3l1,0a4.34,4.34,0,0,0-4.17-3.95A7,7,0,0,0,4,9a6,6,0,0,0,0,.74A3.26,3.26,0,0,0,2.36,11.27Z"/></svg>