<svg id="fog_light" xmlns="http://www.w3.org/2000/svg" viewBox="0 0 24 24"><defs><style>.cls-1{fill:none;}.cls-2{fill:#fff;}</style></defs><rect class="cls-1" width="24" height="24"/><path class="cls-2" d="M12,17.36a14.68,14.68,0,0,1-5.15-.82A13.58,13.58,0,0,0,2,15.76a.5.5,0,1,1,0-1,14.73,14.73,0,0,1,5.15.82,13.54,13.54,0,0,0,4.85.78,13.58,13.58,0,0,0,4.85-.78A14.68,14.68,0,0,1,22,14.76a.5.5,0,0,1,0,1,13.58,13.58,0,0,0-4.85.78A14.78,14.78,0,0,1,12,17.36Z"/><path class="cls-2" d="M12,20.36a17.17,17.17,0,0,1-2.25-.13.5.5,0,1,1,.12-1,17.15,17.15,0,0,0,2.13.12c.64,0,1.21,0,1.75-.08a.49.49,0,0,1,.54.45.5.5,0,0,1-.45.55C13.27,20.33,12.67,20.36,12,20.36Zm5.67-1a.49.49,0,0,1-.48-.36.5.5,0,0,1,.33-.62,14.42,14.42,0,0,1,4.07-.61.5.5,0,0,1,.51.49.49.49,0,0,1-.49.51,13.16,13.16,0,0,0-3.8.57ZM6,19.24l-.13,0A13.41,13.41,0,0,0,2,18.76a.5.5,0,0,1,0-1,14.21,14.21,0,0,1,4.08.5.49.49,0,0,1,.35.61A.5.5,0,0,1,6,19.24Z"/><path class="cls-2" d="M4.41,10.67l.7-.29L5,9.64C5,9.41,5,9.2,5,9A6,6,0,0,1,16.82,7.55l.18.74.76,0a3.31,3.31,0,0,1,3,4.44h1a4,4,0,0,0,.16-1.1,4.34,4.34,0,0,0-4.21-4.34A7,7,0,0,0,4,9a6,6,0,0,0,0,.74,3.25,3.25,0,0,0-2,3H3A2.22,2.22,0,0,1,4.41,10.67Z"/></svg>