<svg id="freezing_rain_heavy" xmlns="http://www.w3.org/2000/svg" viewBox="0 0 24 24"><defs><style>.cls-2{fill:#fff;fill-rule:evenodd}</style></defs><path fill="none" d="M0 0h24v24H0z"/><path class="cls-2" d="M21 12H3c-.55 0-1 1-1 1s.22.72.54.89a.93.93 0 01.46.84V19c0 .55 1 1 1 1s1-.45 1-1v-4c0-.55 1-1 1-1s1 .45 1 1v4c0 .55 1 1 1 1s1-.45 1-1v-4c0-.55 1-1 1-1s1 .45 1 1v6c0 .55 1 1 1 1s1-.45 1-1v-6c0-.55 1-1 1-1s1 .45 1 1v4c0 .55 1 1 1 1s1-.45 1-1v-4c0-.55 1-1 1-1s1 .45 1 1v4c0 .55 1 1 1 1s1-.45 1-1v-4.27a.92.92 0 01.47-.84c.31-.17.53-.89.53-.89s-.45-1-1-1M19 9.81a.49.49 0 01-.27-.65l2-4.85a.5.5 0 01.92.38l-2 4.85a.49.49 0 01-.65.27M4.72 9.54l2-4.85A.5.5 0 006.46 4a.49.49 0 00-.65.27l-2 4.85a.49.49 0 00.27.65.49.49 0 00.65-.27m3.74 0l2-4.85a.5.5 0 00-.28-.65.49.49 0 00-.65.27l-2 4.85a.5.5 0 00.93.38m3.73 0l2-4.85a.5.5 0 00-.92-.38l-2 4.85a.5.5 0 10.92.38m3.74 0l2-4.85a.51.51 0 00-.27-.65.5.5 0 00-.66.27L15 9.16a.51.51 0 00.27.65.5.5 0 00.66-.27m1.86 0l.73-1.75a.5.5 0 00-.92-.38l-.73 1.75a.5.5 0 00.27.65.49.49 0 00.65-.27m-3.73 0l.73-1.75a.5.5 0 00-.28-.65.49.49 0 00-.65.27l-.72 1.75a.5.5 0 10.92.38m-3.74 0l.73-1.75a.5.5 0 00-.27-.65.49.49 0 00-.65.27L9.4 9.16a.5.5 0 10.92.38m-3.73 0l.72-1.75a.5.5 0 00-.92-.38l-.73 1.75a.5.5 0 00.93.38m12.6-3.37l.61-1.48a.5.5 0 00-.92-.38l-.61 1.48a.5.5 0 10.92.38m-3.73 0l.61-1.48A.51.51 0 0015.8 4a.49.49 0 00-.65.27l-.62 1.48a.5.5 0 00.93.38m-3.74 0l.61-1.48a.5.5 0 00-.92-.38l-.61 1.52a.49.49 0 00.27.65.49.49 0 00.65-.27M8 6.17l.6-1.48A.51.51 0 008.33 4a.5.5 0 00-.66.27l-.61 1.52a.49.49 0 00.27.65.49.49 0 00.67-.27"/></svg>