<svg id="freezing_rain" xmlns="http://www.w3.org/2000/svg" viewBox="0 0 24 24"><defs><style>.cls-1{fill:none;}.cls-2{fill:#fff;fill-rule:evenodd;}</style></defs><rect class="cls-1" width="24" height="24"/><path class="cls-2" d="M11.76,6.15a.63.63,0,0,1-.19,0,.5.5,0,0,1-.27-.66l.48-1.15a.5.5,0,0,1,.92.38l-.48,1.16a.49.49,0,0,1-.46.3m-3.27-.3L9,4.69A.51.51,0,0,0,8.7,4,.5.5,0,0,0,8,4.31L7.56,5.46a.52.52,0,0,0,.27.66.69.69,0,0,0,.2,0,.5.5,0,0,0,.46-.3M9.63,9.22l.48-1.16a.5.5,0,0,0-.92-.38L8.71,8.83A.51.51,0,0,0,9,9.49a.65.65,0,0,0,.19,0,.5.5,0,0,0,.46-.31m-3.74,0,.48-1.16a.51.51,0,0,0-.27-.65.5.5,0,0,0-.66.27L5,8.83a.5.5,0,0,0,.27.66.58.58,0,0,0,.19,0,.51.51,0,0,0,.46-.31M4.75,5.85l.48-1.16A.5.5,0,0,0,5,4a.49.49,0,0,0-.65.27L3.83,5.46a.5.5,0,0,0,.27.66.63.63,0,0,0,.19,0,.49.49,0,0,0,.46-.3m14.94,0,.48-1.16a.5.5,0,0,0-.92-.38l-.48,1.15a.52.52,0,0,0,.27.66.63.63,0,0,0,.19,0,.48.48,0,0,0,.46-.3M16,5.85l.48-1.16A.51.51,0,0,0,16.17,4a.5.5,0,0,0-.66.27L15,5.46a.5.5,0,0,0,.27.66.58.58,0,0,0,.19,0,.5.5,0,0,0,.46-.3m1.16,3.37.48-1.16a.5.5,0,0,0-.27-.65.49.49,0,0,0-.65.27L16.2,8.83a.5.5,0,0,0,.27.66.65.65,0,0,0,.19,0,.5.5,0,0,0,.46-.31m-3.74,0,.48-1.16a.51.51,0,0,0-.27-.65.5.5,0,0,0-.66.27l-.48,1.15a.52.52,0,0,0,.27.66.71.71,0,0,0,.2,0,.51.51,0,0,0,.46-.31"/><path class="cls-2" d="M21,12H3c-.55,0-1,1-1,1s.22.72.54.89a.93.93,0,0,1,.46.84V19c0,.55,1,1,1,1s1-.45,1-1V15c0-.55,1-1,1-1s1,.45,1,1v2c0,.55,1,1,1,1s1-.45,1-1V15c0-.55,1-1,1-1s1,.45,1,1v6c0,.55,1,1,1,1s1-.45,1-1V15c0-.55,1-1,1-1s1,.45,1,1v2c0,.55,1,1,1,1s1-.45,1-1V15c0-.55,1-1,1-1s1,.45,1,1v4c0,.55,1,1,1,1s1-.45,1-1V14.73a.92.92,0,0,1,.47-.84c.31-.17.53-.89.53-.89s-.45-1-1-1"/></svg>