<svg id="freezing_rain_heavy" xmlns="http://www.w3.org/2000/svg" viewBox="0 0 24 24"><defs><style>.cls-1{fill:none;}.cls-2{fill:#fff;fill-rule:evenodd;}</style></defs><rect class="cls-1" width="24" height="24"/><path class="cls-2" d="M21,12H3c-.55,0-1,1-1,1s.22.72.54.89a.93.93,0,0,1,.46.84V19c0,.55,1,1,1,1s1-.45,1-1V15c0-.55,1-1,1-1s1,.45,1,1v4c0,.55,1,1,1,1s1-.45,1-1V15c0-.55,1-1,1-1s1,.45,1,1v6c0,.55,1,1,1,1s1-.45,1-1V15c0-.55,1-1,1-1s1,.45,1,1v4c0,.55,1,1,1,1s1-.45,1-1V15c0-.55,1-1,1-1s1,.45,1,1v4c0,.55,1,1,1,1s1-.45,1-1V14.73a.92.92,0,0,1,.47-.84c.31-.17.53-.89.53-.89s-.45-1-1-1"/><path class="cls-2" d="M19,9.81h0a.49.49,0,0,1-.27-.65l2-4.85a.5.5,0,0,1,.92.38l-2,4.85a.49.49,0,0,1-.65.27M4.72,9.54l2-4.85A.5.5,0,0,0,6.46,4a.49.49,0,0,0-.65.27l-2,4.85a.49.49,0,0,0,.27.65.49.49,0,0,0,.65-.27m3.74,0,2-4.85A.5.5,0,0,0,10.19,4a.49.49,0,0,0-.65.27l-2,4.85a.5.5,0,0,0,.93.38m3.73,0,2-4.85a.5.5,0,0,0-.92-.38l-2,4.85a.5.5,0,1,0,.92.38m3.74,0,2-4.85A.51.51,0,0,0,17.67,4a.5.5,0,0,0-.66.27L15,9.16a.51.51,0,0,0,.27.65.5.5,0,0,0,.66-.27m1.86,0,.73-1.75a.5.5,0,0,0-.92-.38l-.73,1.75a.5.5,0,0,0,.27.65.49.49,0,0,0,.65-.27m-3.73,0,.73-1.75a.5.5,0,0,0-.28-.65.49.49,0,0,0-.65.27l-.72,1.75a.5.5,0,1,0,.92.38m-3.74,0,.73-1.75a.5.5,0,0,0-.27-.65.49.49,0,0,0-.65.27L9.4,9.16a.5.5,0,1,0,.92.38m-3.73,0,.72-1.75a.5.5,0,0,0-.92-.38L5.66,9.16a.5.5,0,0,0,.93.38m12.6-3.37.61-1.48a.5.5,0,0,0-.92-.38l-.61,1.48a.5.5,0,1,0,.92.38m-3.73,0,.61-1.48A.51.51,0,0,0,15.8,4a.49.49,0,0,0-.65.27l-.62,1.48a.5.5,0,0,0,.93.38m-3.74,0,.61-1.48a.5.5,0,0,0-.92-.38L10.8,5.79a.49.49,0,0,0,.27.65.49.49,0,0,0,.65-.27M8,6.17,8.6,4.69A.51.51,0,0,0,8.33,4a.5.5,0,0,0-.66.27L7.06,5.79a.49.49,0,0,0,.27.65A.49.49,0,0,0,8,6.17"/></svg>