<svg id="freezing_rain_drizzle" xmlns="http://www.w3.org/2000/svg" viewBox="0 0 24 24"><defs><style>.cls-1{fill:#fff;fill-rule:evenodd}</style></defs><path class="cls-1" d="M11.75 9.53a.65.65 0 01-.19 0 .51.51 0 01-.27-.66l.48-1.15a.5.5 0 01.92.38l-.47 1.16a.51.51 0 01-.47.31m-3.27-.35L9 8.06a.51.51 0 00-.27-.65.5.5 0 00-.73.27l-.44 1.15a.5.5 0 00.27.66.58.58 0 00.19 0 .51.51 0 00.46-.31m7.47 0l.48-1.16a.5.5 0 00-.27-.65.49.49 0 00-.65.27L15 8.83a.5.5 0 00.27.66.65.65 0 00.19 0 .51.51 0 00.54-.27"/><path fill="none" d="M0 0h24v24H0z"/><path class="cls-1" d="M21 12H3c-.55 0-1 1-1 1s.45 1 1 1h1s1 .45 1 1v2c0 .55 1 1 1 1s1-.45 1-1v-2c0-.55 1-1 1-1s1 .45 1 1v2c0 .55 1 1 1 1s1-.45 1-1v-2c0-.55 1-1 1-1s1 .45 1 1v2c0 .55 1 1 1 1s1-.45 1-1v-2c0-.55 1-1 1-1s1 .45 1 1v2c0 .55 1 1 1 1s1-.45 1-1v-2c0-.55 1-1 1-1h1c.55 0 1-1 1-1s-.45-1-1-1z"/></svg>