<svg id="freezing_rain" xmlns="http://www.w3.org/2000/svg" viewBox="0 0 24 24"><defs><style>.cls-2{fill:#fff;fill-rule:evenodd}</style></defs><path fill="none" d="M0 0h24v24H0z"/><path class="cls-2" d="M11.76 6.15a.63.63 0 01-.19 0 .5.5 0 01-.27-.66l.48-1.15a.5.5 0 01.92.38l-.48 1.16a.49.49 0 01-.46.3m-3.27-.3L9 4.69A.51.51 0 008.7 4a.5.5 0 00-.7.31l-.44 1.15a.52.52 0 00.27.66.69.69 0 00.2 0 .5.5 0 00.46-.3m1.14 3.4l.48-1.16a.5.5 0 00-.92-.38l-.48 1.15a.51.51 0 00.29.66.65.65 0 00.19 0 .5.5 0 00.46-.31m-3.74 0l.48-1.16a.51.51 0 00-.27-.65.5.5 0 00-.66.27L5 8.83a.5.5 0 00.27.66.58.58 0 00.19 0 .51.51 0 00.46-.31M4.75 5.85l.48-1.16A.5.5 0 005 4a.49.49 0 00-.65.27l-.52 1.19a.5.5 0 00.27.66.63.63 0 00.19 0 .49.49 0 00.46-.3m14.94 0l.48-1.16a.5.5 0 00-.92-.38l-.48 1.15a.52.52 0 00.27.66.63.63 0 00.19 0 .48.48 0 00.46-.3M16 5.85l.48-1.16a.51.51 0 00-.31-.69.5.5 0 00-.66.27L15 5.46a.5.5 0 00.27.66.58.58 0 00.19 0 .5.5 0 00.46-.3m1.16 3.37l.48-1.16a.5.5 0 00-.27-.65.49.49 0 00-.65.27l-.44 1.18a.5.5 0 00.27.66.65.65 0 00.19 0 .5.5 0 00.46-.31m-3.74 0l.48-1.16a.51.51 0 00-.27-.65.5.5 0 00-.66.27l-.48 1.15a.52.52 0 00.27.66.71.71 0 00.2 0 .51.51 0 00.46-.31M21 12H3c-.55 0-1 1-1 1s.22.72.54.89a.93.93 0 01.46.84V19c0 .55 1 1 1 1s1-.45 1-1v-4c0-.55 1-1 1-1s1 .45 1 1v2c0 .55 1 1 1 1s1-.45 1-1v-2c0-.55 1-1 1-1s1 .45 1 1v6c0 .55 1 1 1 1s1-.45 1-1v-6c0-.55 1-1 1-1s1 .45 1 1v2c0 .55 1 1 1 1s1-.45 1-1v-2c0-.55 1-1 1-1s1 .45 1 1v4c0 .55 1 1 1 1s1-.45 1-1v-4.27a.92.92 0 01.47-.84c.31-.17.53-.89.53-.89s-.45-1-1-1"/></svg>