<svg id="freezing_rain_light" xmlns="http://www.w3.org/2000/svg" viewBox="0 0 24 24"><defs><style>.cls-1{fill:#fff;fill-rule:evenodd;}.cls-2{fill:none;}</style></defs><path class="cls-1" d="M11.75,9.53a.65.65,0,0,1-.19,0,.51.51,0,0,1-.27-.66l.48-1.15a.5.5,0,0,1,.92.38l-.47,1.16a.51.51,0,0,1-.47.31m-7-.31.48-1.16a.5.5,0,0,0-.92-.38L3.82,8.83a.51.51,0,0,0,.27.66.65.65,0,0,0,.19,0,.5.5,0,0,0,.46-.31m15,0,.48-1.16a.5.5,0,0,0-.28-.65.49.49,0,0,0-.65.27l-.48,1.15a.52.52,0,0,0,.27.66.72.72,0,0,0,.19,0,.51.51,0,0,0,.47-.31m-11.21,0L9,8.06a.51.51,0,0,0-.27-.65A.5.5,0,0,0,8,7.68L7.56,8.83a.5.5,0,0,0,.27.66.58.58,0,0,0,.19,0,.51.51,0,0,0,.46-.31m7.47,0,.48-1.16a.5.5,0,0,0-.27-.65.49.49,0,0,0-.65.27L15,8.83a.5.5,0,0,0,.27.66.65.65,0,0,0,.19,0A.51.51,0,0,0,16,9.22"/><rect class="cls-2" width="24" height="24"/><path class="cls-1" d="M21,12H3c-.55,0-1,1-1,1s.22.72.54.89a.93.93,0,0,1,.46.84V19c0,.55,1,1,1,1s1-.45,1-1V15c0-.55,1-1,1-1s1,.45,1,1v2c0,.55,1,1,1,1s1-.45,1-1V15c0-.55,1-1,1-1s1,.45,1,1v2c0,.55,1,1,1,1s1-.45,1-1V15c0-.55,1-1,1-1s1,.45,1,1v2c0,.55,1,1,1,1s1-.45,1-1V15c0-.55,1-1,1-1s1,.45,1,1v4c0,.55,1,1,1,1s1-.45,1-1V14.73a.92.92,0,0,1,.47-.84c.31-.17.53-.89.53-.89s-.45-1-1-1"/></svg>