<svg id="freezing_rain_light" xmlns="http://www.w3.org/2000/svg" viewBox="0 0 24 24"><defs><style>.cls-1{fill:#fff;fill-rule:evenodd}</style></defs><path class="cls-1" d="M11.75 9.53a.65.65 0 01-.19 0 .51.51 0 01-.27-.66l.48-1.15a.5.5 0 01.92.38l-.47 1.16a.51.51 0 01-.47.31m-7-.31l.48-1.16a.5.5 0 00-.92-.38l-.49 1.11a.51.51 0 00.27.66.65.65 0 00.19 0 .5.5 0 00.46-.31m15 0l.48-1.16a.5.5 0 00-.28-.65.49.49 0 00-.65.27l-.48 1.15a.52.52 0 00.27.66.72.72 0 00.19 0 .51.51 0 00.47-.31m-11.21 0L9 8.06a.51.51 0 00-.27-.65.5.5 0 00-.73.27l-.44 1.15a.5.5 0 00.27.66.58.58 0 00.19 0 .51.51 0 00.46-.31m7.47 0l.48-1.16a.5.5 0 00-.27-.65.49.49 0 00-.65.27L15 8.83a.5.5 0 00.27.66.65.65 0 00.19 0 .51.51 0 00.54-.27"/><path fill="none" d="M0 0h24v24H0z"/><path class="cls-1" d="M21 12H3c-.55 0-1 1-1 1s.22.72.54.89a.93.93 0 01.46.84V19c0 .55 1 1 1 1s1-.45 1-1v-4c0-.55 1-1 1-1s1 .45 1 1v2c0 .55 1 1 1 1s1-.45 1-1v-2c0-.55 1-1 1-1s1 .45 1 1v2c0 .55 1 1 1 1s1-.45 1-1v-2c0-.55 1-1 1-1s1 .45 1 1v2c0 .55 1 1 1 1s1-.45 1-1v-2c0-.55 1-1 1-1s1 .45 1 1v4c0 .55 1 1 1 1s1-.45 1-1v-4.27a.92.92 0 01.47-.84c.31-.17.53-.89.53-.89s-.45-1-1-1"/></svg>