<svg xmlns="http://www.w3.org/2000/svg" viewBox="0 0 84.65 89.03"><defs><style>.a{fill:#fff}</style></defs><path class="a" d="M42.32 3.44c-35.19 38.39-34 63.3-21.41 75 5.62 5.22 13.51 7.83 21.41 7.83s15.78-2.62 21.4-7.84c12.59-11.69 13.79-36.61-21.4-74.99zm-23.3 77C5.33 67.75 3.66 41 41.23.52c.05-.05.09-.1.15-.15a1.39 1.39 0 012 .07c37.65 40.53 36 67.28 22.28 80C59.46 86.17 50.88 89 42.32 89s-17.15-2.83-23.3-8.54z"/><path class="a" d="M30.54 48.26A7.18 7.18 0 0131.81 44a4.27 4.27 0 013.71-1.78 4.78 4.78 0 013.69 1.59 6.69 6.69 0 011.47 4.69 6.62 6.62 0 01-1.49 4.63 4.71 4.71 0 01-3.64 1.62 4.59 4.59 0 01-3.58-1.6 7.05 7.05 0 01-1.43-4.89zm5.06-4.09a2.2 2.2 0 00-1.8.94 6 6 0 00-.7 3.45 5.41 5.41 0 00.72 3.21 2.22 2.22 0 003.62 0 5.92 5.92 0 00.66-3.44 5.3 5.3 0 00-.73-3.22 2.19 2.19 0 00-1.77-.94zm0 23l13-25h2.37l-12.93 25zm10.25-6.43a7.22 7.22 0 011.25-4.35 4.32 4.32 0 013.72-1.77 4.81 4.81 0 013.7 1.59 6.75 6.75 0 011.47 4.68 6.7 6.7 0 01-1.48 4.64 4.78 4.78 0 01-3.67 1.62 4.59 4.59 0 01-3.58-1.6 7.07 7.07 0 01-1.39-4.83zm5.08-4.09a2.19 2.19 0 00-1.82.94 5.84 5.84 0 00-.7 3.41 5.29 5.29 0 00.73 3.2 2.21 2.21 0 003.62 0 5.86 5.86 0 00.73-3.43 5.45 5.45 0 00-.73-3.23 2.24 2.24 0 00-1.81-.91z"/><path fill="none" d="M0 2.19h84.65v84.65H0z"/></svg>