<svg xmlns="http://www.w3.org/2000/svg" viewBox="0 0 84.65 89.03"><defs><style>.a{fill:#fff;}.b{fill:none;}</style></defs><path class="a" d="M32.22,3.44c-35.19,38.39-34,63.3-21.41,75,5.62,5.22,13.51,7.83,21.41,7.83S48,83.65,53.62,78.43C66.21,66.74,67.41,41.82,32.22,3.44Zm-23.3,77C-4.77,67.75-6.44,41,31.13.52c.05-.05.09-.1.15-.15a1.39,1.39,0,0,1,2,.07h0c37.65,40.53,36,67.28,22.28,80C49.36,86.17,40.78,89,32.22,89S15.07,86.17,8.92,80.46Z" transform="translate(10.1)"/><path class="a" d="M20.44,48.26A7.18,7.18,0,0,1,21.71,44a4.27,4.27,0,0,1,3.71-1.78,4.78,4.78,0,0,1,3.69,1.59,6.69,6.69,0,0,1,1.47,4.69,6.62,6.62,0,0,1-1.49,4.63,4.71,4.71,0,0,1-3.64,1.62,4.59,4.59,0,0,1-3.58-1.6A7.05,7.05,0,0,1,20.44,48.26Zm5.06-4.09a2.2,2.2,0,0,0-1.8.94A6,6,0,0,0,23,48.56a5.41,5.41,0,0,0,.72,3.21,2.22,2.22,0,0,0,3.62,0A5.92,5.92,0,0,0,28,48.33a5.3,5.3,0,0,0-.73-3.22A2.19,2.19,0,0,0,25.5,44.17Zm0,23,13-25h2.37l-12.93,25Zm10.25-6.43A7.22,7.22,0,0,1,37,56.39a4.32,4.32,0,0,1,3.72-1.77,4.81,4.81,0,0,1,3.7,1.59,6.75,6.75,0,0,1,1.47,4.68,6.7,6.7,0,0,1-1.48,4.64,4.78,4.78,0,0,1-3.67,1.62,4.59,4.59,0,0,1-3.58-1.6A7.07,7.07,0,0,1,35.77,60.72Zm5.08-4.09a2.19,2.19,0,0,0-1.82.94A5.84,5.84,0,0,0,38.31,61a5.29,5.29,0,0,0,.73,3.2,2.21,2.21,0,0,0,3.62,0,5.86,5.86,0,0,0,.73-3.43,5.45,5.45,0,0,0-.73-3.23A2.24,2.24,0,0,0,40.85,56.63Z" transform="translate(10.1)"/><rect class="b" y="2.19" width="84.65" height="84.65"/></svg>