<svg id="ice_pellets_light" xmlns="http://www.w3.org/2000/svg" viewBox="0 0 24 24"><defs><style>.cls-1{fill:none;}.cls-2{fill:#fff;fill-rule:evenodd;}</style></defs><rect class="cls-1" width="24" height="24"/><path class="cls-2" d="M12.26,12.34l-1.84.76L11.18,15,13,14.18ZM7.05,14.07l-1.84.77L6,16.68l1.85-.76ZM15.23,16l-1.85.76.77,1.85L16,17.87Z"/><path class="cls-2" d="M15.13,5.41a.49.49,0,0,1,.27.65l-1.91,4.62A.5.5,0,0,1,13,11a.43.43,0,0,1-.19,0,.49.49,0,0,1-.27-.65l1.91-4.62A.49.49,0,0,1,15.13,5.41ZM8.89,8.34a.5.5,0,0,1,.92.38l-1.53,3.7a.49.49,0,0,1-.46.3.63.63,0,0,1-.19,0A.5.5,0,0,1,7.36,12Zm8.94.09a.5.5,0,0,1,.93.39l-2.3,5.54a.51.51,0,0,1-.46.31.41.41,0,0,1-.19,0,.49.49,0,0,1-.27-.65Z"/></svg>