<svg id="ice_pellets_heavy" xmlns="http://www.w3.org/2000/svg" viewBox="0 0 24 24"><defs><style>.cls-1{fill:none;}.cls-2{fill:#fff;fill-rule:evenodd;}</style></defs><rect class="cls-1" width="24" height="24"/><path class="cls-2" d="M13,21l-1.54-3.69L7.78,18.8l1.53,3.69Zm-3.5-7.37-1.85.76.77,1.85,1.84-.77Zm10,7.27L18,17.17l-3.7,1.53,1.53,3.7ZM6.1,21,4.57,17.27.87,18.8l1.54,3.69ZM16,13.49l-1.85.76.77,1.85,1.84-.76Z"/><path class="cls-2" d="M14.29,2a.49.49,0,0,1,.27.65l-3.83,9.24a.49.49,0,0,1-.46.31.43.43,0,0,1-.19,0,.51.51,0,0,1-.27-.65l3.83-9.24A.49.49,0,0,1,14.29,2Zm1.32,4a.49.49,0,0,1,.65-.27.51.51,0,0,1,.27.65L12.7,15.61a.5.5,0,0,1-.46.31.43.43,0,0,1-.19,0,.49.49,0,0,1-.27-.65Zm6.48-.1a.5.5,0,1,1,.92.38l-3.83,9.24a.48.48,0,0,1-.46.31.43.43,0,0,1-.19,0,.51.51,0,0,1-.27-.65ZM8.7,6a.5.5,0,0,1,.92.38L5.8,15.61a.51.51,0,0,1-.46.31.48.48,0,0,1-.2,0,.51.51,0,0,1-.27-.65ZM20.77,1.94a.49.49,0,0,1,.27.65l-3.82,9.24a.5.5,0,0,1-.47.31.46.46,0,0,1-.19,0,.5.5,0,0,1-.27-.65l3.83-9.24A.5.5,0,0,1,20.77,1.94Z"/></svg>