<svg id="ice_pellets" xmlns="http://www.w3.org/2000/svg" viewBox="0 0 24 24"><defs><style>.cls-1{fill:none;}.cls-2{fill:#fff;fill-rule:evenodd;}</style></defs><rect class="cls-1" width="24" height="24"/><path class="cls-2" d="M13.51,21,12,17.27,8.28,18.8l1.53,3.69Zm-4-7.37-1.85.76.77,1.85,1.84-.77ZM4.8,15.32,3,16.09l.77,1.84,1.84-.76Zm12.69-1.83-1.85.76.77,1.85,1.84-.76Z"/><path class="cls-2" d="M20.47,5a.5.5,0,0,1,.93.39l-2.68,6.46a.5.5,0,0,1-.47.31.46.46,0,0,1-.19,0,.5.5,0,0,1-.27-.65ZM14.29,2a.49.49,0,0,1,.27.65l-3.83,9.24a.49.49,0,0,1-.46.31.43.43,0,0,1-.19,0,.51.51,0,0,1-.27-.65l3.83-9.24A.49.49,0,0,1,14.29,2ZM8.16,5.89a.5.5,0,0,1,.93.38L6,13.66a.47.47,0,0,1-.46.31.43.43,0,0,1-.19,0,.5.5,0,0,1-.27-.65Zm8,.1a.49.49,0,0,1,.65-.27.51.51,0,0,1,.27.65L13.2,15.61a.5.5,0,0,1-.46.31.43.43,0,0,1-.19,0,.49.49,0,0,1-.27-.65Z"/></svg>