<svg id="mostly_clear_day" xmlns="http://www.w3.org/2000/svg" viewBox="0 0 24 24"><defs><style>.cls-1,.cls-2{fill-rule:evenodd;}.cls-2,.cls-4{fill:#fff;}.cls-3{fill:none;}</style></defs><path class="cls-1" d="M11.32,3.53h0a.49.49,0,0,1-.65-.27L9.9,1.41a.51.51,0,0,1,.27-.65h0a.52.52,0,0,1,.66.27l.76,1.85A.49.49,0,0,1,11.32,3.53Z"/><path class="cls-1" d="M23.24,6.17h0a.52.52,0,0,1-.27.66l-1.85.76a.49.49,0,0,1-.65-.27h0a.49.49,0,0,1,.27-.65l1.85-.77A.51.51,0,0,1,23.24,6.17Z"/><path class="cls-1" d="M16.68,3.53h0a.49.49,0,0,1-.27-.65L17.17,1a.52.52,0,0,1,.66-.27h0a.51.51,0,0,1,.27.65l-.77,1.85A.49.49,0,0,1,16.68,3.53Z"/><path class="cls-1" d="M7.53,7.32h0a.49.49,0,0,1-.65.27L5,6.83a.52.52,0,0,1-.27-.66h0a.51.51,0,0,1,.65-.27l1.85.77A.49.49,0,0,1,7.53,7.32Z"/><path class="cls-2" d="M23.24,13.83h0a.51.51,0,0,1-.65.27l-1.85-.77a.49.49,0,0,1-.27-.65h0a.49.49,0,0,1,.65-.27l1.85.76A.52.52,0,0,1,23.24,13.83Z"/><path class="cls-2" d="M11.32,3.53h0a.49.49,0,0,1-.65-.27L9.9,1.41a.51.51,0,0,1,.27-.65h0a.52.52,0,0,1,.66.27l.76,1.85A.49.49,0,0,1,11.32,3.53Z"/><path class="cls-2" d="M23.24,6.17h0a.52.52,0,0,1-.27.66l-1.85.76a.49.49,0,0,1-.65-.27h0a.49.49,0,0,1,.27-.65l1.85-.77A.51.51,0,0,1,23.24,6.17Z"/><path class="cls-2" d="M16.68,3.53h0a.49.49,0,0,1-.27-.65L17.17,1a.52.52,0,0,1,.66-.27h0a.51.51,0,0,1,.27.65l-.77,1.85A.49.49,0,0,1,16.68,3.53Z"/><path class="cls-2" d="M7.53,7.32h0a.49.49,0,0,1-.65.27L5,6.83a.52.52,0,0,1-.27-.66h0a.51.51,0,0,1,.65-.27l1.85.77A.49.49,0,0,1,7.53,7.32Z"/><rect class="cls-3" width="24" height="24"/><path class="cls-2" d="M9,9.5h.05a5,5,0,1,1,6.34,5.28v0h.38a4.09,4.09,0,0,1,1.36.3A6,6,0,1,0,8,9.58,6.37,6.37,0,0,1,9,9.5Z"/><path class="cls-4" d="M9,10a6,6,0,0,1,5.82,4.55l.18.74.76,0A3.35,3.35,0,0,1,15.65,22H3.25A2.25,2.25,0,0,1,1,19.75a2.22,2.22,0,0,1,1.41-2.08l.7-.28L3,16.64c0-.23,0-.44,0-.64a6,6,0,0,1,6-6M9,9a7,7,0,0,0-7,7c0,.25,0,.5,0,.74A3.25,3.25,0,0,0,3.25,23h12.4a4.35,4.35,0,0,0,.14-8.69A7,7,0,0,0,9,9Z"/></svg>