<svg id="Layer_1" data-name="Layer 1" xmlns="http://www.w3.org/2000/svg" viewBox="0 0 466.67 373.33"><defs><style>.cls-1,.cls-2{fill:#ffffff;}.cls-1{fill-rule:evenodd;}</style></defs><path class="cls-1" d="M223.28,1.66a17.49,17.49,0,0,1,10.05,15.83V355.83a17.5,17.5,0,0,1-28.65,13.49L96.6,280H17.5A17.49,17.49,0,0,1,0,262.49V110.83a17.5,17.5,0,0,1,17.5-17.5H96.6L204.68,4a17.48,17.48,0,0,1,18.6-2.34Zm-24.95,53-84.28,69.65a17.48,17.48,0,0,1-11.15,4H35V245h67.9a17.52,17.52,0,0,1,11.15,4l84.28,69.65Z"/><path class="cls-2" d="M461.54,110.12a17.49,17.49,0,0,1,0,24.75l-51.78,51.79,51.78,51.79A17.5,17.5,0,0,1,436.8,263.2L385,211.41l-51.8,51.79a17.5,17.5,0,0,1-24.75-24.75l51.8-51.79-51.8-51.79a17.5,17.5,0,0,1,24.75-24.75L385,161.91l51.79-51.79a17.5,17.5,0,0,1,24.74,0Z"/></svg>