<svg id="partly_cloudy_day" xmlns="http://www.w3.org/2000/svg" viewBox="0 0 24 24"><defs><style>.cls-3{fill:#fff}</style></defs><path fill="none" d="M0 0h24v24H0z"/><path d="M13.56 6.59A3.5 3.5 0 0119 9.5a3.4 3.4 0 01-.51 1.79 4 4 0 01.82.59 4.48 4.48 0 00-6.69-5.81 6.61 6.61 0 01.94.52z" fill-rule="evenodd" fill="#fff"/><path class="cls-3" d="M10 6a6 6 0 015.82 4.55l.18.74h.76a3.35 3.35 0 01-.11 6.71H4.25A2.25 2.25 0 012 15.75a2.22 2.22 0 011.41-2.08l.7-.28-.11-.75V12a6 6 0 016-6m0-1a7 7 0 00-7 7 6 6 0 000 .74A3.25 3.25 0 004.25 19h12.4a4.35 4.35 0 00.14-8.69A7 7 0 0010 5zM13.16 4.34a.5.5 0 01-.47-.34l-.57-1.38a.5.5 0 11.88-.36l.58 1.39a.51.51 0 01-.27.65.43.43 0 01-.15.04zM21.16 7.66a.5.5 0 01-.19-1l1.38-.57a.52.52 0 01.66.27.5.5 0 01-.27.65l-1.39.58a.65.65 0 01-.19.07zM17.84 4.34a.43.43 0 01-.19 0 .51.51 0 01-.27-.65L18 2.26a.5.5 0 11.92.39L18.31 4a.5.5 0 01-.47.34zM22.54 12.92a.46.46 0 01-.19 0L21 12.31a.5.5 0 01.38-.93l1.39.58a.5.5 0 01.27.65.51.51 0 01-.5.31z"/></svg>