<svg enable-background="new 0 0 100 100" version="1.0" viewBox="0 0 100 100" x="0px" xml:space="preserve" xmlns="http://www.w3.org/2000/svg" xmlns:xlink="http://www.w3.org/1999/xlink" y="0px">
<style type="text/css">
	polygon, circle, path { fill:#FFFFFF; }
</style>
	<path d="M40.3100586,49.9151611c2.866333,0,5.6124268,0.5491943,7.4380493,1.0188599  c3.0787964-5.1380615,7.6977539-8.3604736,13.3660278-9.3581543c-3.5293579-6.4642334-10.3880615-10.8516235-18.272583-10.8516235  c-11.4909058,0-20.8062744,9.3153076-20.8062744,20.8063354c0,3.8423462,1.0469971,7.4382935,2.8619385,10.5275879  c0.8196411-0.3067017,1.664978-0.5471191,2.5272827-0.7122192l-0.0148926-0.8175659l0.0214844-0.1801147  C28.2119141,53.7188721,32.90625,49.9151611,40.3100586,49.9151611z"/>
	<path d="M48.9389038,25.671814l-6.0973511-11.8276978l-6.09729,11.8276978c1.9587402-0.4613647,3.9990234-0.710083,6.09729-0.710083  S46.9801025,25.2104492,48.9389038,25.671814z"/>
	<path d="M5.1100464,51.5756226l11.8277588,6.097229c-0.4613647-1.9587402-0.7122192-3.9968262-0.7122192-6.097229  c0-2.0982666,0.2508545-4.1385498,0.7122192-6.09729L5.1100464,51.5756226z"/>
	<path d="M24.7985229,32.7560425c1.4846802-1.4848022,3.1044922-2.7484131,4.8143311-3.8082275l-12.6750488-4.0526123  l4.050415,12.6751099C22.0482178,35.8604126,23.3139038,34.2406006,24.7985229,32.7560425z"/>
	<path d="M66.2459106,37.5703125l4.0528564-12.6751099l-12.675293,4.0526123  c1.7098389,1.0598145,3.329834,2.3234253,4.8143311,3.8082275C63.9224854,34.2406006,65.1882935,35.8604126,66.2459106,37.5703125z"/>
	<path d="M93.5056152,67.5053711c-1.5747681-1.6176147-3.8639526-2.4715576-6.6206055-2.4737549L83.6990356,65.02948  l0.5791016-3.130127c0.5665894-3.0807495-1.0984497-5.8678589-2.593689-7.6655273  c-3.8273926-4.5998535-10.5275269-7.6890869-16.6699219-7.6890869c-0.6199951,0-1.2744141,0.0319824-1.947998,0.1092529  c-3.9777222,0.4484253-8.6696777,2.4373169-11.611145,8.5774536l-1.0318604,2.1560669l-2.2504883-0.8023071  c-0.036499-0.0130005-3.9070435-1.364502-7.8629761-1.364502c-6.0136108,0-7.242981,2.9414673-7.5883789,5.578125  l0.1072388,5.5951538l-2.7054443-0.0020752c-0.564209,0-1.119812,0.0622559-1.6668701,0.163147  c-4.3703003,0.8044434-7.9488525,4.5888672-7.9488525,7.6504517c-0.0021973,2.0187988,0.5385132,4.9065552,3.1323853,7.1999512  c2.675354,2.3687134,7.0670166,3.6193237,12.694397,3.6257935l26.1225586,0.0151978l-0.0107422,0.0405884  c4.9731445,0.0021362,13.9710693,0.008606,18.7124023,0.0107422h0.0171509h0.0021973  c9.7637329,0,14.5094604-3.9046021,14.5158691-11.9412842C95.696167,70.9636841,94.9195557,68.9557495,93.5056152,67.5053711z"/>
</svg>