<svg id="partly_cloudy_day" xmlns="http://www.w3.org/2000/svg" viewBox="0 0 24 24"><defs><style>.cls-1{fill:none;}.cls-2,.cls-3{fill:#fff;}.cls-2{fill-rule:evenodd;}</style></defs><rect class="cls-1" width="24" height="24"/><path class="cls-2" d="M13.56,6.59A3.5,3.5,0,0,1,19,9.5a3.4,3.4,0,0,1-.51,1.79,4,4,0,0,1,.82.59,4.48,4.48,0,0,0-6.69-5.81A6.61,6.61,0,0,1,13.56,6.59Z"/><path class="cls-3" d="M10,6a6,6,0,0,1,5.82,4.55l.18.74.76,0A3.35,3.35,0,0,1,16.65,18H4.25A2.25,2.25,0,0,1,2,15.75a2.22,2.22,0,0,1,1.41-2.08l.7-.28L4,12.64c0-.23,0-.44,0-.64a6,6,0,0,1,6-6m0-1a7,7,0,0,0-7,7,6,6,0,0,0,0,.74A3.25,3.25,0,0,0,4.25,19h12.4a4.35,4.35,0,0,0,.14-8.69A7,7,0,0,0,10,5Z"/><path class="cls-3" d="M13.16,4.34A.5.5,0,0,1,12.69,4l-.57-1.38A.5.5,0,1,1,13,2.26l.58,1.39a.51.51,0,0,1-.27.65A.43.43,0,0,1,13.16,4.34Z"/><path class="cls-3" d="M21.16,7.66a.5.5,0,0,1-.19-1l1.38-.57a.52.52,0,0,1,.66.27.5.5,0,0,1-.27.65l-1.39.58A.65.65,0,0,1,21.16,7.66Z"/><path class="cls-3" d="M17.84,4.34a.43.43,0,0,1-.19,0,.51.51,0,0,1-.27-.65L18,2.26a.5.5,0,1,1,.92.39L18.31,4A.5.5,0,0,1,17.84,4.34Z"/><path class="cls-3" d="M22.54,12.92a.46.46,0,0,1-.19,0L21,12.31a.5.5,0,0,1,.38-.93l1.39.58a.5.5,0,0,1,.27.65A.51.51,0,0,1,22.54,12.92Z"/></svg>