<svg enable-background="new 0 0 60 60" version="1.1" viewBox="0 0 60 75" x="0px" xml:space="preserve" xmlns="http://www.w3.org/2000/svg" xmlns:xlink="http://www.w3.org/1999/xlink" y="0px">
<style type="text/css">
	polygon, circle, path { fill:#FFFFFF; }
</style>
	<g>
		<g>
			<path d="M30,5c-10.0599976,0-18.25,8.1900024-18.25,18.25c0,9.7700195,16.7600098,30.5,17.4800415,31.3800049    C29.4200439,54.8600464,29.7000122,55,30,55c0.3000488,0,0.5900269-0.1399536,0.7800293-0.3699951    C31.4899902,53.75,48.25,33.0200195,48.25,23.25C48.25,13.1900024,40.0700073,5,30,5z M30,31    c-4.2699585,0-7.75-3.4799805-7.75-7.75c0-4.2699585,3.4800415-7.75,7.75-7.75c4.2700195,0,7.75,3.4800415,7.75,7.75    C37.75,27.5200195,34.2700195,31,30,31z"/>
		</g>
	</g>
</svg>