<svg id="rain_heavy" xmlns="http://www.w3.org/2000/svg" viewBox="0 0 24 24"><defs><style>.cls-1{fill:none;}.cls-2,.cls-3{fill:#fff;}.cls-2{fill-rule:evenodd;}</style></defs><rect class="cls-1" width="24" height="24"/><path class="cls-2" d="M17.26,22.17h0a.51.51,0,0,1-.27-.66l1.63-3.92a.5.5,0,0,1,.92.38L17.91,21.9a.5.5,0,0,1-.65.27M3,21.9,4.6,18a.51.51,0,0,0-.27-.65.5.5,0,0,0-.66.27L2.05,21.51a.5.5,0,0,0,.27.66A.51.51,0,0,0,3,21.9m3.74,0L8.33,18a.5.5,0,0,0-.92-.38L5.78,21.51a.5.5,0,0,0,.93.39m3.73,0L12.07,18a.5.5,0,0,0-.27-.65.49.49,0,0,0-.65.27L9.52,21.51a.5.5,0,0,0,.27.66.51.51,0,0,0,.65-.27m3.74,0L15.81,18a.51.51,0,0,0-.27-.65.5.5,0,0,0-.66.27l-1.63,3.92a.5.5,0,0,0,.93.39m1.87,0,.34-.83a.51.51,0,0,0-.27-.66.5.5,0,0,0-.65.27l-.35.83a.5.5,0,1,0,.93.39m-3.74,0,.34-.83a.5.5,0,0,0-.27-.66.51.51,0,0,0-.65.27l-.34.83a.5.5,0,0,0,.27.66.51.51,0,0,0,.65-.27m-3.73,0,.34-.83A.5.5,0,1,0,8,20.69l-.34.82a.5.5,0,0,0,.93.39m-3.74,0,.34-.83a.5.5,0,1,0-.92-.38l-.34.82a.5.5,0,0,0,.27.66.51.51,0,0,0,.65-.27m12.22-2.45L17.67,18a.49.49,0,0,0-.27-.65.49.49,0,0,0-.65.27l-.61,1.48a.5.5,0,1,0,.92.38m-3.74,0L13.94,18a.51.51,0,0,0-.27-.65.5.5,0,0,0-.66.27l-.61,1.48a.5.5,0,0,0,.27.65.49.49,0,0,0,.65-.27m-3.73,0L10.2,18a.5.5,0,0,0-.92-.38l-.62,1.48a.5.5,0,0,0,.28.65.49.49,0,0,0,.65-.27m-3.74,0L6.47,18a.51.51,0,0,0-.27-.65.5.5,0,0,0-.66.27l-.61,1.48a.5.5,0,0,0,.92.38"/><path class="cls-3" d="M11,3a6,6,0,0,1,5.82,4.55l.18.74.75,0a3.35,3.35,0,0,1-.1,6.69H5.25A2.25,2.25,0,0,1,3,12.75a2.22,2.22,0,0,1,1.41-2.08l.7-.29L5,9.63Q5,9.3,5,9a6,6,0,0,1,6-6m0-1A7,7,0,0,0,4,9a6,6,0,0,0,0,.74A3.25,3.25,0,0,0,5.25,16h12.4a4.35,4.35,0,0,0,.14-8.69A7,7,0,0,0,11,2Z"/></svg>