<svg enable-background="new 0 0 100 100" version="1.0" viewBox="0 0 100 100" x="0px" xml:space="preserve" xmlns="http://www.w3.org/2000/svg" xmlns:xlink="http://www.w3.org/1999/xlink" y="0px">
<style type="text/css">
	circle, path { fill:#FFFFFF; }
</style>
	<path d="M9.8203773,50.6855545c3.1135244,2.7540512,8.2242374,4.2644882,14.7754459,4.2695999h30.3848515  c5.7874184,0.0047684,16.2584076-0.0024986,21.7760544,0h0.0199814h0.0026093  c11.3624039,0,16.8850403-4.5190506,16.89254-13.8690491c0.0024948-2.5543327-0.9015198-4.8888512-2.54673-6.5790253  c-1.8299408-1.8797874-4.49646-2.8761101-7.7047882-2.8761101l-3.7075729-0.0026131l0.6740952-3.6448956  c0.6592178-3.5828476-1.2757492-6.8284779-3.0184937-8.9208126c-4.4541016-5.3504553-12.2513123-8.9481192-19.399292-8.9481192  c-0.7214394,0-1.4828453,0.0399094-2.2669601,0.1273365c-4.6287308,0.5217781-10.0891533,2.8385849-13.5095787,9.9842958  l-1.203537,2.5090885l-2.6189384-0.9362602c-0.0424652-0.0151024-4.5464134-1.5878735-9.1477795-1.5878735  c-7.0007191,0-8.4314499,3.4255924-8.8332729,6.4913731l0.1246681,6.5112438h-3.1481552  c-0.6566067,0-1.3033371,0.0700531-1.9399624,0.1874542c-5.0856209,0.9362602-9.250309,5.3405228-9.250309,8.9030991  C6.1729822,44.6560669,6.8021135,48.0167694,9.8203773,50.6855545z"/>
	<path d="M54.778347,63.0992317c-0.871315-0.871315-5.9095879,1.0486641-7.4925804,1.81007  c-0.4193077,0.2022171-0.8138618,0.4768753-1.1583443,0.823967c-1.6603127,1.6603165-1.6603127,4.3516922,0,6.0118942  c1.662693,1.6605377,4.3540726,1.655426,6.012001,0C53.797123,70.0849609,55.5448608,63.8631363,54.778347,63.0992317z"/>
	<path d="M34.8348465,63.0992317c-0.8713112-0.871315-5.909586,1.0486641-7.492691,1.81007  c-0.4193058,0.2022171-0.8112507,0.4768753-1.1584587,0.823967c-1.6601982,1.6603165-1.6601982,4.3516922,0,6.0118942  c1.6629219,1.6605377,4.3543015,1.655426,6.0122299,0C33.8536263,70.0849609,35.6012497,63.8631363,34.8348465,63.0992317z"/>
	<path d="M14.8938484,63.0992317c-0.8739262-0.871315-5.9123135,1.0486641-7.4928055,1.81007  c-0.4191937,0.2022171-0.8136358,0.4768753-1.1608443,0.823967c-1.6603122,1.6603165-1.6603122,4.3516922,0,6.0118942  c1.6628094,1.6605377,4.3543019,1.655426,6.012116,0C13.9126263,70.0849609,15.657753,63.8631363,14.8938484,63.0992317z"/>
	<path d="M74.7220688,63.0992317c-0.871315-0.871315-5.9099274,1.0486641-7.4928055,1.81007  c-0.4194183,0.2022171-0.813858,0.4768753-1.1583481,0.823967c-1.6601944,1.6603165-1.6601944,4.3516922,0,6.0118942  c1.6629257,1.6605377,4.3541946,1.655426,6.0118942,0C73.7408447,70.0849609,75.488472,63.8631363,74.7220688,63.0992317z"/>
	<path d="M94.6655655,63.0992317c-0.8715363-0.871315-5.9098129,1.0486641-7.4925766,1.81007  c-0.4196472,0.2022171-0.8140869,0.4768753-1.1584625,0.823967c-1.6628036,1.6603165-1.6628036,4.3516922,0,6.0118942  c1.6628113,1.6605377,4.3516922,1.655426,6.0118942,0C93.6843491,70.0849609,95.4320831,63.8631363,94.6655655,63.0992317z"/>
	<path d="M37.2914238,81.4172745c-0.4191933,0.2023315-0.8111382,0.4770966-1.1583481,0.8214722  c-1.6601982,1.6603088-1.6601982,4.3544159,0,6.0121155c1.6628113,1.6629181,4.3540764,1.655426,6.0121155,0  c1.6577034-1.6576996,3.4054413-7.8820267,2.6389236-8.6436615C43.9127998,78.7333908,38.874527,80.655983,37.2914238,81.4172745z"/>
	<path d="M17.3056889,81.4172745c-0.4195347,0.2023315-0.8140907,0.4770966-1.1586876,0.8214722  c-1.6628094,1.6603088-1.6628094,4.3544159,0,6.0121155c1.6628094,1.6629181,4.3519173,1.655426,6.0121155,0  c1.6577015-1.6576996,3.4030552-7.8820267,2.636652-8.6436615C23.9267254,78.7333908,18.8859539,80.655983,17.3056889,81.4172745z"/>
	<path d="M57.2801094,81.4172745c-0.4196472,0.2023315-0.8140869,0.4770966-1.1584587,0.8214722  c-1.6603127,1.6603088-1.6603127,4.3544159,0,6.0121155c1.6628113,1.6629181,4.3515778,1.655426,6.0118904,0  c1.6579247-1.6576996,3.4055519-7.8820267,2.6391487-8.6436615C63.9013748,78.7333908,58.8628731,80.655983,57.2801094,81.4172745z"/>
	<path d="M77.2685699,81.4172745c-0.4194183,0.2023315-0.8139725,0.4770966-1.1585693,0.8214722  c-1.660202,1.6603088-1.660202,4.3544159,0,6.0121155c1.6628036,1.6629181,4.351799,1.655426,6.0121155,0  c1.6576996-1.6576996,3.4054337-7.8820267,2.638916-8.6436615C83.8897247,78.7333908,78.8514481,80.655983,77.2685699,81.4172745z"/>
</svg>