<svg id="rain_light" xmlns="http://www.w3.org/2000/svg" viewBox="0 0 24 24"><defs><style>.cls-1{fill:none;}.cls-2,.cls-3{fill:#fff;}.cls-2{fill-rule:evenodd;}</style></defs><rect class="cls-1" width="24" height="24"/><path class="cls-2" d="M11.53,20a.46.46,0,0,1-.19,0,.51.51,0,0,1-.27-.65l.48-1.16a.51.51,0,0,1,.65-.27.5.5,0,0,1,.27.66L12,19.73a.51.51,0,0,1-.47.31m-7-.31L5,18.58a.5.5,0,0,0-.27-.66.51.51,0,0,0-.65.27L3.6,19.35a.51.51,0,0,0,.27.65.43.43,0,0,0,.19,0,.5.5,0,0,0,.46-.31m15,0L20,18.58a.5.5,0,0,0-.93-.39l-.48,1.16a.51.51,0,0,0,.27.65.48.48,0,0,0,.2,0,.51.51,0,0,0,.46-.31m-11.21,0,.48-1.15a.52.52,0,0,0-.27-.66.51.51,0,0,0-.65.27l-.48,1.16a.49.49,0,0,0,.27.65.41.41,0,0,0,.19,0,.51.51,0,0,0,.46-.31m7.47,0,.48-1.15a.5.5,0,1,0-.92-.39l-.48,1.16a.49.49,0,0,0,.27.65.43.43,0,0,0,.19,0,.5.5,0,0,0,.46-.31"/><path class="cls-3" d="M11,3a6,6,0,0,1,5.82,4.55l.18.74.76,0A3.35,3.35,0,0,1,17.65,15H5.25A2.25,2.25,0,0,1,3,12.75a2.22,2.22,0,0,1,1.41-2.08l.7-.29L5,9.64C5,9.41,5,9.2,5,9a6,6,0,0,1,6-6m0-1A7,7,0,0,0,4,9a6,6,0,0,0,0,.74A3.25,3.25,0,0,0,5.25,16h12.4a4.35,4.35,0,0,0,.14-8.69A7,7,0,0,0,11,2Z"/></svg>