<svg xmlns="http://www.w3.org/2000/svg" viewBox="0 0 24 24"><path fill="none" d="M0 0h24v24H0z"/><path d="M17.26 22.17a.51.51 0 01-.27-.66l1.63-3.92a.5.5 0 01.92.38l-1.63 3.93a.5.5 0 01-.65.27M3 21.9L4.6 18a.51.51 0 00-.27-.65.5.5 0 00-.66.27l-1.62 3.89a.5.5 0 00.27.66.51.51 0 00.68-.27m3.74 0L8.33 18a.5.5 0 00-.92-.38l-1.63 3.89a.5.5 0 00.93.39m3.73 0l1.63-3.9a.5.5 0 00-.27-.65.49.49 0 00-.65.27l-1.63 3.89a.5.5 0 00.27.66.51.51 0 00.65-.27m3.74 0l1.63-3.9a.51.51 0 00-.27-.65.5.5 0 00-.66.27l-1.63 3.92a.5.5 0 00.93.39m1.87 0l.34-.83a.51.51 0 00-.27-.66.5.5 0 00-.65.27l-.35.83a.5.5 0 10.93.39m-3.74 0l.34-.83a.5.5 0 00-.27-.66.51.51 0 00-.65.27l-.34.83a.5.5 0 00.27.66.51.51 0 00.65-.27m-3.73 0l.34-.83a.5.5 0 10-.92-.41l-.34.82a.5.5 0 00.93.39m-3.74 0l.34-.83a.5.5 0 10-.92-.38l-.34.82a.5.5 0 00.27.66.51.51 0 00.65-.27m12.22-2.45l.6-1.45a.49.49 0 00-.27-.65.49.49 0 00-.65.27l-.61 1.48a.5.5 0 10.92.38m-3.74 0l.62-1.48a.51.51 0 00-.27-.65.5.5 0 00-.66.27l-.61 1.48a.5.5 0 00.27.65.49.49 0 00.65-.27m-3.73 0L10.2 18a.5.5 0 00-.92-.38l-.62 1.48a.5.5 0 00.28.65.49.49 0 00.65-.27m-3.74 0L6.47 18a.51.51 0 00-.27-.65.5.5 0 00-.66.27l-.61 1.48a.5.5 0 00.92.38" fill-rule="evenodd" fill="#fff"/><path d="M11 3a6 6 0 015.82 4.55l.18.74h.75a3.35 3.35 0 01-.1 6.69H5.25A2.25 2.25 0 013 12.75a2.22 2.22 0 011.41-2.08l.7-.29L5 9.63V9a6 6 0 016-6m0-1a7 7 0 00-7 7 6 6 0 000 .74A3.25 3.25 0 005.25 16h12.4a4.35 4.35 0 00.14-8.69A7 7 0 0011 2z" fill="#fff"/></svg>