<svg xmlns="http://www.w3.org/2000/svg" viewBox="0 0 90 90"><defs><style>.a{fill:#fff}</style></defs><path class="a" d="M31 28a4.85 4.85 0 104.85 4.85A4.89 4.89 0 0031 28zM59.05 28a4.85 4.85 0 104.85 4.85A4.89 4.89 0 0059.05 28z"/><path class="a" d="M45 0a45 45 0 1045 45A45 45 0 0045 0zm0 5.46A39.54 39.54 0 115.46 45 39.5 39.5 0 0145 5.46z"/><path class="a" d="M45 51.72a25.37 25.37 0 00-21.53 11.43c-1 1.49-.8 3.4.56 4.17a2.94 2.94 0 004-1.12 20.11 20.11 0 0117-8.84 20 20 0 0117 8.81 3 3 0 004 1.15c1.36-.77 1.52-2.71.56-4.2A25.25 25.25 0 0045 51.72z"/></svg>