<svg xmlns="http://www.w3.org/2000/svg" viewBox="0 0 90 90"><defs><style>.a{fill:#fff;}</style></defs><path class="a" d="M45,0A45,45,0,1,0,90,45,45,45,0,0,0,45,0Zm0,5.46A39.54,39.54,0,1,1,5.46,45,39.5,39.5,0,0,1,45,5.46Z"/><path class="a" d="M45,51.72A25.37,25.37,0,0,0,23.47,63.15c-1,1.49-.8,3.4.56,4.17a2.94,2.94,0,0,0,4-1.12,20.11,20.11,0,0,1,17-8.84,20,20,0,0,1,17,8.81,3,3,0,0,0,4,1.15c1.36-.77,1.52-2.71.56-4.2A25.25,25.25,0,0,0,45,51.72Z"/><path class="a" d="M23.08,36.05c-.54.54-.06,2.05,1.13,3.25s2.7,1.71,3.26,1.13L39.38,28.52c.58-.56.06-2.05-1.13-3.25S35.54,23.59,35,24.14Z"/><path class="a" d="M35,40.67c.55.54,2.06.06,3.26-1.13s1.71-2.7,1.13-3.26L27.47,24.37c-.56-.58-2.06-.06-3.26,1.13s-1.67,2.71-1.13,3.26Z"/><path class="a" d="M51.24,36c-.54.54-.06,2.05,1.13,3.25s2.7,1.71,3.26,1.13L67.54,28.51c.58-.56.06-2.05-1.13-3.25s-2.71-1.68-3.26-1.13Z"/><path class="a" d="M63.15,40.66c.55.54,2.06.06,3.26-1.14s1.71-2.69,1.13-3.25L55.63,24.36c-.56-.58-2.06-.06-3.26,1.13s-1.67,2.71-1.13,3.26Z"/></svg>