<svg xmlns="http://www.w3.org/2000/svg" viewBox="0 0 90 90"><defs><style>.a{fill:#fff;}</style></defs><path class="a" d="M45,0A45,45,0,1,0,90,45,45,45,0,0,0,45,0Zm0,5.46A39.54,39.54,0,1,1,5.46,45,39.5,39.5,0,0,1,45,5.46Z"/><path class="a" d="M29.72,57.1A3,3,0,0,0,27,60.2a3,3,0,0,0,2.72,3.1H60.28A3,3,0,0,0,63,60.2a3,3,0,0,0-2.72-3.1Z"/><path class="a" d="M30.75,27.49a4.75,4.75,0,1,0,4.75,4.75A4.79,4.79,0,0,0,30.75,27.49Z"/><path class="a" d="M59.34,27.31a4.84,4.84,0,1,0,4.85,4.84A4.88,4.88,0,0,0,59.34,27.31Z"/></svg>