<svg xmlns="http://www.w3.org/2000/svg" viewBox="0 0 90 90"><defs><style>.a{fill:#fff}</style></defs><path class="a" d="M45 0a45 45 0 1045 45A45 45 0 0045 0zm0 5.46A39.54 39.54 0 115.46 45 39.5 39.5 0 0145 5.46z"/><path class="a" d="M45 51.72a25.37 25.37 0 00-21.53 11.43c-1 1.49-.8 3.4.56 4.17a2.94 2.94 0 004-1.12 20.11 20.11 0 0117-8.84 20 20 0 0117 8.81 3 3 0 004 1.15c1.36-.77 1.52-2.71.56-4.2A25.25 25.25 0 0045 51.72zM23.08 36.05c-.54.54-.06 2.05 1.13 3.25s2.7 1.71 3.26 1.13l11.91-11.91c.58-.56.06-2.05-1.13-3.25s-2.71-1.68-3.25-1.13z"/><path class="a" d="M35 40.67c.55.54 2.06.06 3.26-1.13s1.71-2.7 1.13-3.26L27.47 24.37c-.56-.58-2.06-.06-3.26 1.13s-1.67 2.71-1.13 3.26zM51.24 36c-.54.54-.06 2.05 1.13 3.25s2.7 1.71 3.26 1.13l11.91-11.87c.58-.56.06-2.05-1.13-3.25s-2.71-1.68-3.26-1.13z"/><path class="a" d="M63.15 40.66c.55.54 2.06.06 3.26-1.14s1.71-2.69 1.13-3.25L55.63 24.36c-.56-.58-2.06-.06-3.26 1.13s-1.67 2.71-1.13 3.26z"/></svg>