<svg xmlns="http://www.w3.org/2000/svg" viewBox="0 0 90 90"><defs><style>.a{fill:#fff;}</style></defs><path class="a" d="M30.75,27.5a4.75,4.75,0,1,0,4.75,4.75A4.79,4.79,0,0,0,30.75,27.5Z"/><path class="a" d="M59.25,27.5A4.75,4.75,0,1,0,64,32.25,4.79,4.79,0,0,0,59.25,27.5Z"/><path class="a" d="M45,0A45,45,0,1,0,90,45,45,45,0,0,0,45,0Zm0,5.5A39.5,39.5,0,1,1,5.5,45,39.43,39.43,0,0,1,45,5.5Z"/><path class="a" d="M66.53,59.38c1.53-2.34-.12-4.56-2.22-4.47A3,3,0,0,0,62,56.38,20.21,20.21,0,0,1,45,65a20.21,20.21,0,0,1-17-8.62,3,3,0,0,0-2.31-1.47c-2.1-.09-3.75,2.13-2.22,4.47C28.36,66.83,36.71,70.5,45,70.5S61.64,66.83,66.53,59.38Z"/></svg>