<svg xmlns="http://www.w3.org/2000/svg" viewBox="0 0 90 90"><defs><style>.a{fill:#fff;}</style></defs><path class="a" d="M31,28a4.85,4.85,0,1,0,4.85,4.85A4.89,4.89,0,0,0,31,28Z"/><path class="a" d="M59.05,28a4.85,4.85,0,1,0,4.85,4.85A4.89,4.89,0,0,0,59.05,28Z"/><path class="a" d="M45,0A45,45,0,1,0,90,45,45,45,0,0,0,45,0Zm0,5.46A39.54,39.54,0,1,1,5.46,45,39.5,39.5,0,0,1,45,5.46Z"/><path class="a" d="M45,51.72A25.37,25.37,0,0,0,23.47,63.15c-1,1.49-.8,3.4.56,4.17a2.94,2.94,0,0,0,4-1.12,20.11,20.11,0,0,1,17-8.84,20,20,0,0,1,17,8.81,3,3,0,0,0,4,1.15c1.36-.77,1.52-2.71.56-4.2A25.25,25.25,0,0,0,45,51.72Z"/></svg>