<svg xmlns="http://www.w3.org/2000/svg" viewBox="0 0 90 90"><defs><style>.a{fill:#fff}</style></defs><path class="a" d="M30.75 27.5a4.75 4.75 0 104.75 4.75 4.79 4.79 0 00-4.75-4.75zM59.25 27.5A4.75 4.75 0 1064 32.25a4.79 4.79 0 00-4.75-4.75z"/><path class="a" d="M45 0a45 45 0 1045 45A45 45 0 0045 0zm0 5.5A39.5 39.5 0 115.5 45 39.43 39.43 0 0145 5.5z"/><path class="a" d="M66.53 59.38c1.53-2.34-.12-4.56-2.22-4.47A3 3 0 0062 56.38 20.21 20.21 0 0145 65a20.21 20.21 0 01-17-8.62 3 3 0 00-2.31-1.47c-2.1-.09-3.75 2.13-2.22 4.47C28.36 66.83 36.71 70.5 45 70.5s16.64-3.67 21.53-11.12z"/></svg>