<?xml version="1.0" encoding="utf-8"?>
<!DOCTYPE svg PUBLIC "-//W3C//DTD SVG 1.1//EN" "http://www.w3.org/Graphics/SVG/1.1/DTD/svg11.dtd">
<svg version="1.1" id="Layer_1" xmlns="http://www.w3.org/2000/svg" xmlns:xlink="http://www.w3.org/1999/xlink" x="0px" y="0px"
	 width="720px" height="720px" viewBox="40 180 720 720" enable-background="new 40 180 720 720" xml:space="preserve">
<path fill="#FFFFFF" d="M286,400c-20.75,0-38,17.25-38,38c0,20.75,17.25,38,38,38c20.749,0,38-17.25,38-38
	C324,417.25,306.749,400,286,400L286,400z"/>
<path fill="#FFFFFF" d="M514,400c-20.75,0-38,17.25-38,38c0,20.75,17.25,38,38,38c20.749,0,38-17.25,38-38
	C552,417.25,534.749,400,514,400z"/>
<path fill="#FFFFFF" d="M400,180C201.419,180,40,341.419,40,540s161.419,360,360,360c198.58,0,360-161.419,360-360
	S598.58,180,400,180z M400,224c174.94,0,316,141.059,316,316c0,174.941-141.059,316-316,316C225.06,856,84,714.941,84,540
	C84,365.059,225.059,224,400,224z"/>
<path fill="#FFFFFF" d="M572.25,655c12.255-18.678-1.006-36.418-17.75-35.75c-7.646,0.305-14.309,5.447-18.5,11.75
	c-30.567,45.956-83.346,69-136,69s-105.434-23.044-136-69c-4.192-6.303-10.854-11.445-18.5-11.75
	c-16.744-0.668-30.006,17.072-17.75,35.75c39.131,59.636,105.918,89,172.25,89C466.331,744,533.118,714.636,572.25,655z"/>
</svg>
