<svg id="snow_heavy" xmlns="http://www.w3.org/2000/svg" viewBox="0 0 24 24"><defs><style>.cls-1{fill:none;}.cls-2{fill:#fff;}</style></defs><rect class="cls-1" width="24" height="24"/><path class="cls-2" d="M11,1a6,6,0,0,1,5.82,4.55l.18.74.76,0A3.35,3.35,0,0,1,17.65,13H5.25A2.25,2.25,0,0,1,3,10.75,2.22,2.22,0,0,1,4.41,8.67l.7-.29L5,7.64C5,7.41,5,7.2,5,7a6,6,0,0,1,6-6m0-1A7,7,0,0,0,4,7a6,6,0,0,0,0,.74A3.25,3.25,0,0,0,5.25,14h12.4a4.35,4.35,0,0,0,.14-8.69A7,7,0,0,0,11,0Z"/><path class="cls-2" d="M6.5,18.29a.5.5,0,0,1-.43.25.59.59,0,0,1-.25-.07L5,18v.94a.5.5,0,0,1-.5.5.5.5,0,0,1-.5-.5V18l-.81.47a.59.59,0,0,1-.25.07.51.51,0,0,1-.44-.25.52.52,0,0,1,.19-.69l.81-.47-.81-.47A.51.51,0,0,1,2.5,16a.52.52,0,0,1,.69-.19l.81.48v-.95a.51.51,0,0,1,.5-.5.5.5,0,0,1,.5.5v.95l.82-.48A.5.5,0,0,1,6.5,16a.49.49,0,0,1-.18.68l-.82.47.82.47A.51.51,0,0,1,6.5,18.29Zm14.81-.69-.81-.47.81-.47A.51.51,0,0,0,21.5,16a.52.52,0,0,0-.69-.19l-.81.48v-.95a.51.51,0,0,0-.5-.5.5.5,0,0,0-.5.5v.95l-.82-.48a.5.5,0,0,0-.68.19.49.49,0,0,0,.18.68l.82.47-.82.47a.51.51,0,0,0-.18.69.5.5,0,0,0,.43.25.59.59,0,0,0,.25-.07L19,18v.94a.5.5,0,0,0,.5.5.5.5,0,0,0,.5-.5V18l.81.47a.59.59,0,0,0,.25.07.51.51,0,0,0,.44-.25A.52.52,0,0,0,21.31,17.6Zm-7.49,0L13,17.13l.82-.47A.49.49,0,0,0,14,16a.51.51,0,0,0-.68-.19l-.82.48v-.95a.5.5,0,0,0-1,0v.95l-.82-.48A.51.51,0,0,0,10,16a.49.49,0,0,0,.18.68l.82.47-.82.47a.51.51,0,0,0-.18.69.5.5,0,0,0,.43.25.55.55,0,0,0,.25-.07L11.5,18v.94a.5.5,0,0,0,1,0V18l.82.47a.55.55,0,0,0,.25.07.5.5,0,0,0,.43-.25A.51.51,0,0,0,13.82,17.6Zm-3.57,2.23a.49.49,0,0,0-.68-.18l-.82.47v-.94a.5.5,0,0,0-.5-.5.5.5,0,0,0-.5.5v.94l-.82-.47a.5.5,0,0,0-.5.86l.82.47-.82.48a.5.5,0,0,0,.25.93.43.43,0,0,0,.25-.07l.82-.47v.94a.5.5,0,0,0,.5.5.5.5,0,0,0,.5-.5v-.94l.82.47a.45.45,0,0,0,.25.07.5.5,0,0,0,.25-.93L9.25,21l.82-.48A.49.49,0,0,0,10.25,19.83Zm7.5,0a.5.5,0,0,0-.68-.18l-.82.47v-.94a.5.5,0,0,0-.5-.5.5.5,0,0,0-.5.5v.94l-.82-.47a.5.5,0,0,0-.5.86l.82.48-.82.47a.5.5,0,0,0,.25.93.45.45,0,0,0,.25-.07l.82-.47v.94a.5.5,0,0,0,.5.5.5.5,0,0,0,.5-.5v-.94l.82.47a.43.43,0,0,0,.25.07.5.5,0,0,0,.25-.93L16.75,21l.82-.48A.5.5,0,0,0,17.75,19.83Z"/></svg>