<svg enable-background="new 0 0 100 100" version="1.0" viewBox="0 0 100 100" x="0px" xml:space="preserve" xmlns="http://www.w3.org/2000/svg" xmlns:xlink="http://www.w3.org/1999/xlink" y="0px">
<style type="text/css">
	polygon, circle, path { fill:#FFFFFF; }
</style>
	<polygon points="94.2845154,45.4042053 76.8321915,45.4042053 91.0741119,31.1622829 84.8679733,24.9591808 64.4226151,45.4042053   55.8532295,45.4042053 55.8532295,36.541523 76.2982483,16.099535 70.0951462,9.8930588 55.8532295,24.1353188   55.8532295,5.2985311 47.0823479,5.2985311 47.0823479,24.1353188 32.8404236,9.8930588 26.6373234,16.099535   47.0823479,36.5445595 47.0823479,45.4042053 37.9294052,45.4042053 17.4843807,24.9591808 11.2812796,31.1622829   25.523201,45.4042053 5.635407,45.4042053 5.635407,54.1781235 25.523201,54.1781235 11.2812796,68.4170074 17.4843807,74.6201096   37.9294052,54.1781235 47.0823479,54.1781235 47.0823479,63.0377693 26.6373234,83.4831314 32.8404236,89.6858978   47.0823479,75.4439697 47.0823479,95.543045 55.8532295,95.543045 55.8532295,75.4439697 70.0951462,89.6858978   76.2982483,83.4831314 55.8532295,63.0377693 55.8532295,54.1781235 64.4226151,54.1781235 84.8679733,74.6201096   91.0741119,68.4170074 76.8321915,54.1781235 94.2845154,54.1781235 "/>
</svg>