<svg id="snow_light" xmlns="http://www.w3.org/2000/svg" viewBox="0 0 24 24"><defs><style>.cls-1{fill:none;}.cls-2{fill:#fff;}</style></defs><rect class="cls-1" width="24" height="24"/><path class="cls-2" d="M11,3a6,6,0,0,1,5.82,4.55l.18.74.76,0A3.35,3.35,0,0,1,17.65,15H5.25A2.25,2.25,0,0,1,3,12.75a2.22,2.22,0,0,1,1.41-2.08l.7-.29L5,9.64C5,9.41,5,9.2,5,9a6,6,0,0,1,6-6m0-1A7,7,0,0,0,4,9a6,6,0,0,0,0,.74A3.25,3.25,0,0,0,5.25,16h12.4a4.35,4.35,0,0,0,.14-8.69A7,7,0,0,0,11,2Z"/><path class="cls-2" d="M13.82,20.6,13,20.13l.82-.47A.49.49,0,0,0,14,19a.51.51,0,0,0-.68-.19l-.82.48v-.95a.5.5,0,0,0-1,0v.95l-.82-.48A.51.51,0,0,0,10,19a.49.49,0,0,0,.18.68l.82.47-.82.47a.51.51,0,0,0-.18.69.5.5,0,0,0,.43.25.55.55,0,0,0,.25-.07L11.5,21v.94a.5.5,0,0,0,1,0V21l.82.47a.55.55,0,0,0,.25.07.5.5,0,0,0,.43-.25A.51.51,0,0,0,13.82,20.6Z"/></svg>