<svg xmlns="http://www.w3.org/2000/svg" viewBox="0 0 34 89.9"><defs><style>.a{fill:#fff}</style></defs><path class="a" d="M27.4 59.6V10.3A10.29 10.29 0 0017.1 0h-.2A10.29 10.29 0 006.6 10.3v49.2a17.07 17.07 0 1020.8.1zM17 86.9A13.83 13.83 0 013.2 73.1a13.67 13.67 0 015.9-11.3l.7-.6V35.7h4.1v-3.2H9.8v-8.4h4.1v-3.2H9.8V10.3a7.13 7.13 0 017.1-7.1h.2a7.13 7.13 0 017.1 7.1v50.9l.7.5A13.86 13.86 0 0117 86.9z"/><path class="a" d="M23.1 64.3l-2-1.4v-20H13v20l-2 1.4A10.67 10.67 0 1027.8 73a10.86 10.86 0 00-4.7-8.7z"/></svg>