<svg xmlns="http://www.w3.org/2000/svg" viewBox="0 0 34 89.9"><defs><style>.a{fill:#fff;}</style></defs><path class="a" d="M52.72,59.6V10.3A10.29,10.29,0,0,0,42.42,0h-.2a10.29,10.29,0,0,0-10.3,10.3V59.5a17.07,17.07,0,1,0,20.8.1ZM42.32,86.9a13.83,13.83,0,0,1-13.8-13.8,13.67,13.67,0,0,1,5.9-11.3l.7-.6V35.7h4.1V32.5h-4.1V24.1h4.1V20.9h-4.1V10.3a7.13,7.13,0,0,1,7.1-7.1h.2a7.13,7.13,0,0,1,7.1,7.1V61.2l.7.5a13.86,13.86,0,0,1-7.9,25.2Z" transform="translate(-25.32)"/><path class="a" d="M48.42,64.3l-2-1.4v-20h-8.1v20l-2,1.4A10.67,10.67,0,1,0,53.12,73,10.86,10.86,0,0,0,48.42,64.3Z" transform="translate(-25.32)"/></svg>