<svg id="tstorm" xmlns="http://www.w3.org/2000/svg" viewBox="0 0 24 24"><defs><style>.cls-1{fill:none;}.cls-2,.cls-3{fill:#fff;}.cls-2{fill-rule:evenodd;}</style></defs><rect class="cls-1" width="24" height="24"/><path class="cls-2" d="M16.77,22.17h0a.5.5,0,0,1-.27-.66l1.62-3.92a.5.5,0,0,1,.66-.27.51.51,0,0,1,.27.65L17.42,21.9a.51.51,0,0,1-.65.27M3,21.9,4.6,18a.5.5,0,0,0-.92-.38L2.05,21.51A.5.5,0,1,0,3,21.9m3.73,0L8.34,18a.5.5,0,0,0-.27-.65.49.49,0,0,0-.65.27L5.79,21.51a.5.5,0,0,0,.27.66.51.51,0,0,0,.65-.27m8.84,0,.35-.83a.51.51,0,0,0-.28-.66.5.5,0,0,0-.65.28l-.34.82a.5.5,0,0,0,.27.66.51.51,0,0,0,.65-.27m-7,0,.34-.83a.49.49,0,0,0-.27-.65.49.49,0,0,0-.65.27l-.34.82a.5.5,0,0,0,.27.66.51.51,0,0,0,.65-.27m-3.74,0,.35-.83a.5.5,0,0,0-.93-.38l-.34.82a.52.52,0,0,0,.27.66.5.5,0,0,0,.65-.27m11.73-2.45L17.18,18a.51.51,0,0,0-.27-.65.49.49,0,0,0-.65.27l-.62,1.48a.51.51,0,0,0,.27.65.5.5,0,0,0,.66-.27m-10.71,0L6.47,18a.5.5,0,0,0-.92-.38l-.62,1.48a.5.5,0,0,0,.28.65.49.49,0,0,0,.65-.27"/><path class="cls-2" d="M15.64,13.7h-3l.54-3.19a.67.67,0,0,0-.65-.77H9.28a.67.67,0,0,0-.66.56l-.91,5.94a.66.66,0,0,0,.65.76h2.52l-.1.75-.55,3.95a.68.68,0,0,0,.23.6.7.7,0,0,0,.24.13.66.66,0,0,0,.76-.28l4.73-7.44A.65.65,0,0,0,15.64,13.7Z"/><path class="cls-3" d="M17.79,7.31A7,7,0,0,0,4,9a6,6,0,0,0,0,.74A3.25,3.25,0,0,0,5.25,16H6.73l.16-1H5.25A2.25,2.25,0,0,1,3,12.75a2.22,2.22,0,0,1,1.41-2.08l.7-.28L5,9.64C5,9.41,5,9.2,5,9A6,6,0,0,1,16.82,7.55l.18.74.76,0A3.35,3.35,0,0,1,17.65,15h-.5a1.36,1.36,0,0,1-.11.25l-.48.75h1.09a4.35,4.35,0,0,0,.14-8.69Z"/><path class="cls-2" d="M24,8.58a3.35,3.35,0,0,0-3.16-3.41A5.31,5.31,0,0,0,15.75,1a5.1,5.1,0,0,0-3.68,1.59L13.16,3a4.06,4.06,0,0,1,2.59-1,4.3,4.3,0,0,1,4.12,3.4l.17.75.77,0A2.33,2.33,0,0,1,23,8.58a2.41,2.41,0,0,1-1.53,2.28l.16,1A3.38,3.38,0,0,0,24,8.58Z"/></svg>