<svg id="Layer_1" data-name="Layer 1" xmlns="http://www.w3.org/2000/svg" viewBox="0 0 466.67 373.33"><defs><style>.cls-1,.cls-2{fill:#ffffff;}.cls-1{fill-rule:evenodd;}</style></defs><path class="cls-1" d="M223.28,1.66a17.49,17.49,0,0,1,10.05,15.83V355.83a17.5,17.5,0,0,1-28.65,13.49L96.6,280H17.5A17.49,17.49,0,0,1,0,262.49V110.83a17.5,17.5,0,0,1,17.5-17.5H96.6L204.68,4a17.48,17.48,0,0,1,18.6-2.34Zm-24.95,53-84.28,69.65a17.48,17.48,0,0,1-11.15,4H35V245h67.9a17.52,17.52,0,0,1,11.15,4l84.28,69.65Z"/><path class="cls-2" d="M379.09,334.56a17.5,17.5,0,0,1-9.8-32A140,140,0,0,0,384.86,81.17,17.53,17.53,0,1,1,408.31,55.1a175,175,0,0,1-19.42,276,17.43,17.43,0,0,1-9.8,3.5Z"/><path class="cls-2" d="M344.09,281.89a17.44,17.44,0,0,1-11.73-30.45,87.5,87.5,0,0,0,0-130.55,17.53,17.53,0,1,1,23.45-26.07,122.48,122.48,0,0,1,0,182.7,17.56,17.56,0,0,1-11.72,4.38Z"/><path class="cls-2" d="M291.59,242.86a17.56,17.56,0,0,1-11.73-30.62,35,35,0,0,0,0-52.5,17.54,17.54,0,0,1,23.45-26.08,70,70,0,0,1,0,105,17.47,17.47,0,0,1-11.72,4.2Z"/></svg>